<svg width="362" height="328" viewBox="0 0 362 328" fill="none" xmlns="http://www.w3.org/2000/svg">
<rect width="362" height="328" fill="#0F172A"/>
<path d="M98.0625 34.1094V43.125C97.7083 43.5521 97.1615 44.0156 96.4219 44.5156C95.6823 45.0052 94.7292 45.4271 93.5625 45.7812C92.3958 46.1354 90.9844 46.3125 89.3281 46.3125C87.8594 46.3125 86.5208 46.0729 85.3125 45.5938C84.1042 45.1042 83.0625 44.3906 82.1875 43.4531C81.3229 42.5156 80.6562 41.3698 80.1875 40.0156C79.7188 38.651 79.4844 37.0938 79.4844 35.3438V33.9219C79.4844 32.1719 79.7083 30.6146 80.1562 29.25C80.6146 27.8854 81.2656 26.7344 82.1094 25.7969C82.9531 24.8594 83.9583 24.1458 85.125 23.6562C86.2917 23.1667 87.5885 22.9219 89.0156 22.9219C90.9948 22.9219 92.6198 23.2448 93.8906 23.8906C95.1615 24.526 96.1302 25.4115 96.7969 26.5469C97.474 27.6719 97.8906 28.9635 98.0469 30.4219H93.5C93.3854 29.651 93.1667 28.9792 92.8438 28.4062C92.5208 27.8333 92.0573 27.3854 91.4531 27.0625C90.8594 26.7396 90.0885 26.5781 89.1406 26.5781C88.3594 26.5781 87.6615 26.7396 87.0469 27.0625C86.4427 27.375 85.9323 27.8385 85.5156 28.4531C85.099 29.0677 84.7812 29.8281 84.5625 30.7344C84.3438 31.6406 84.2344 32.6927 84.2344 33.8906V35.3438C84.2344 36.5312 84.349 37.5833 84.5781 38.5C84.8073 39.4062 85.1458 40.1719 85.5938 40.7969C86.0521 41.4115 86.6146 41.875 87.2812 42.1875C87.9479 42.5 88.724 42.6562 89.6094 42.6562C90.349 42.6562 90.9635 42.5938 91.4531 42.4688C91.9531 42.3438 92.3542 42.1927 92.6562 42.0156C92.9688 41.8281 93.2083 41.651 93.375 41.4844V37.4531H89.0938V34.1094H98.0625ZM106.312 29.0938V46H101.797V29.0938H106.312ZM101.516 24.6875C101.516 24.0312 101.745 23.4896 102.203 23.0625C102.661 22.6354 103.276 22.4219 104.047 22.4219C104.807 22.4219 105.417 22.6354 105.875 23.0625C106.344 23.4896 106.578 24.0312 106.578 24.6875C106.578 25.3438 106.344 25.8854 105.875 26.3125C105.417 26.7396 104.807 26.9531 104.047 26.9531C103.276 26.9531 102.661 26.7396 102.203 26.3125C101.745 25.8854 101.516 25.3438 101.516 24.6875ZM118.312 29.0938V32.2812H108.469V29.0938H118.312ZM110.906 24.9219H115.406V40.9062C115.406 41.3958 115.469 41.7708 115.594 42.0312C115.729 42.2917 115.927 42.474 116.188 42.5781C116.448 42.6719 116.776 42.7188 117.172 42.7188C117.453 42.7188 117.703 42.7083 117.922 42.6875C118.151 42.6562 118.344 42.625 118.5 42.5938L118.516 45.9062C118.13 46.0312 117.714 46.1302 117.266 46.2031C116.818 46.276 116.323 46.3125 115.781 46.3125C114.792 46.3125 113.927 46.151 113.188 45.8281C112.458 45.4948 111.896 44.9635 111.5 44.2344C111.104 43.5052 110.906 42.5469 110.906 41.3594V24.9219ZM125.266 22V46H120.766V22H125.266ZM124.625 36.9531H123.391C123.401 35.776 123.557 34.6927 123.859 33.7031C124.161 32.7031 124.594 31.8385 125.156 31.1094C125.719 30.3698 126.391 29.7969 127.172 29.3906C127.964 28.9844 128.839 28.7812 129.797 28.7812C130.63 28.7812 131.385 28.901 132.062 29.1406C132.75 29.3698 133.339 29.7448 133.828 30.2656C134.328 30.776 134.714 31.4479 134.984 32.2812C135.255 33.1146 135.391 34.125 135.391 35.3125V46H130.859V35.2812C130.859 34.5312 130.75 33.9427 130.531 33.5156C130.323 33.0781 130.016 32.7708 129.609 32.5938C129.214 32.4062 128.724 32.3125 128.141 32.3125C127.495 32.3125 126.943 32.4323 126.484 32.6719C126.036 32.9115 125.677 33.2448 125.406 33.6719C125.135 34.0885 124.938 34.5781 124.812 35.1406C124.688 35.7031 124.625 36.3073 124.625 36.9531ZM148.812 41.9531V29.0938H153.312V46H149.078L148.812 41.9531ZM149.312 38.4844L150.641 38.4531C150.641 39.5781 150.51 40.625 150.25 41.5938C149.99 42.5521 149.599 43.3854 149.078 44.0938C148.557 44.7917 147.901 45.3385 147.109 45.7344C146.318 46.1198 145.385 46.3125 144.312 46.3125C143.49 46.3125 142.729 46.1979 142.031 45.9688C141.344 45.7292 140.75 45.3594 140.25 44.8594C139.76 44.349 139.375 43.6979 139.094 42.9062C138.823 42.1042 138.688 41.1406 138.688 40.0156V29.0938H143.188V40.0469C143.188 40.5469 143.245 40.9688 143.359 41.3125C143.484 41.6562 143.656 41.9375 143.875 42.1562C144.094 42.375 144.349 42.5312 144.641 42.625C144.943 42.7188 145.276 42.7656 145.641 42.7656C146.568 42.7656 147.297 42.5781 147.828 42.2031C148.37 41.8281 148.75 41.3177 148.969 40.6719C149.198 40.0156 149.312 39.2865 149.312 38.4844ZM156.75 22H161.25V42.125L160.797 46H156.75V22ZM171.953 37.375V37.7031C171.953 38.9635 171.818 40.1198 171.547 41.1719C171.286 42.224 170.88 43.1354 170.328 43.9062C169.776 44.6667 169.089 45.2604 168.266 45.6875C167.453 46.1042 166.495 46.3125 165.391 46.3125C164.359 46.3125 163.464 46.1042 162.703 45.6875C161.953 45.2708 161.323 44.6823 160.812 43.9219C160.302 43.1615 159.891 42.2708 159.578 41.25C159.266 40.2292 159.031 39.1146 158.875 37.9062V37.1875C159.031 35.9792 159.266 34.8646 159.578 33.8438C159.891 32.8229 160.302 31.9323 160.812 31.1719C161.323 30.4115 161.953 29.8229 162.703 29.4062C163.453 28.9896 164.339 28.7812 165.359 28.7812C166.474 28.7812 167.443 28.9948 168.266 29.4219C169.099 29.8385 169.786 30.4323 170.328 31.2031C170.88 31.9635 171.286 32.8698 171.547 33.9219C171.818 34.9635 171.953 36.1146 171.953 37.375ZM167.453 37.7031V37.375C167.453 36.6875 167.401 36.0417 167.297 35.4375C167.203 34.8229 167.036 34.2865 166.797 33.8281C166.557 33.3594 166.229 32.9896 165.812 32.7188C165.406 32.4479 164.88 32.3125 164.234 32.3125C163.62 32.3125 163.099 32.4167 162.672 32.625C162.245 32.8333 161.891 33.125 161.609 33.5C161.339 33.875 161.135 34.3229 161 34.8438C160.865 35.3542 160.781 35.9167 160.75 36.5312V38.5781C160.781 39.401 160.917 40.1302 161.156 40.7656C161.406 41.3906 161.781 41.8854 162.281 42.25C162.792 42.6042 163.453 42.7812 164.266 42.7812C164.901 42.7812 165.427 42.6562 165.844 42.4062C166.26 42.1562 166.583 41.8021 166.812 41.3438C167.052 40.8854 167.219 40.349 167.312 39.7344C167.406 39.1094 167.453 38.4323 167.453 37.7031ZM194.844 40.0469C194.844 39.6406 194.781 39.276 194.656 38.9531C194.542 38.6198 194.323 38.3177 194 38.0469C193.677 37.7656 193.224 37.4896 192.641 37.2188C192.057 36.9479 191.302 36.6667 190.375 36.375C189.344 36.0417 188.365 35.6667 187.438 35.25C186.521 34.8333 185.708 34.349 185 33.7969C184.302 33.2344 183.75 32.5833 183.344 31.8438C182.948 31.1042 182.75 30.2448 182.75 29.2656C182.75 28.3177 182.958 27.4583 183.375 26.6875C183.792 25.9062 184.375 25.2396 185.125 24.6875C185.875 24.125 186.76 23.6927 187.781 23.3906C188.812 23.0885 189.943 22.9375 191.172 22.9375C192.849 22.9375 194.312 23.2396 195.562 23.8438C196.812 24.4479 197.781 25.276 198.469 26.3281C199.167 27.3802 199.516 28.5833 199.516 29.9375H194.859C194.859 29.2708 194.719 28.6875 194.438 28.1875C194.167 27.6771 193.75 27.276 193.188 26.9844C192.635 26.6927 191.938 26.5469 191.094 26.5469C190.281 26.5469 189.604 26.6719 189.062 26.9219C188.521 27.1615 188.115 27.4896 187.844 27.9062C187.573 28.3125 187.438 28.7708 187.438 29.2812C187.438 29.6667 187.531 30.0156 187.719 30.3281C187.917 30.6406 188.208 30.9323 188.594 31.2031C188.979 31.474 189.453 31.7292 190.016 31.9688C190.578 32.2083 191.229 32.4427 191.969 32.6719C193.208 33.0469 194.297 33.4688 195.234 33.9375C196.182 34.4062 196.974 34.9323 197.609 35.5156C198.245 36.099 198.724 36.7604 199.047 37.5C199.37 38.2396 199.531 39.0781 199.531 40.0156C199.531 41.0052 199.339 41.8906 198.953 42.6719C198.568 43.4531 198.01 44.1146 197.281 44.6562C196.552 45.1979 195.682 45.6094 194.672 45.8906C193.661 46.1719 192.531 46.3125 191.281 46.3125C190.156 46.3125 189.047 46.1667 187.953 45.875C186.859 45.5729 185.865 45.1198 184.969 44.5156C184.083 43.9115 183.375 43.1406 182.844 42.2031C182.312 41.2656 182.047 40.1562 182.047 38.875H186.75C186.75 39.5833 186.859 40.1823 187.078 40.6719C187.297 41.1615 187.604 41.5573 188 41.8594C188.406 42.1615 188.885 42.3802 189.438 42.5156C190 42.651 190.615 42.7188 191.281 42.7188C192.094 42.7188 192.76 42.6042 193.281 42.375C193.812 42.1458 194.203 41.8281 194.453 41.4219C194.714 41.0156 194.844 40.5573 194.844 40.0469ZM210.719 29.0938V32.2812H200.875V29.0938H210.719ZM203.312 24.9219H207.812V40.9062C207.812 41.3958 207.875 41.7708 208 42.0312C208.135 42.2917 208.333 42.474 208.594 42.5781C208.854 42.6719 209.182 42.7188 209.578 42.7188C209.859 42.7188 210.109 42.7083 210.328 42.6875C210.557 42.6562 210.75 42.625 210.906 42.5938L210.922 45.9062C210.536 46.0312 210.12 46.1302 209.672 46.2031C209.224 46.276 208.729 46.3125 208.188 46.3125C207.198 46.3125 206.333 46.151 205.594 45.8281C204.865 45.4948 204.302 44.9635 203.906 44.2344C203.51 43.5052 203.312 42.5469 203.312 41.3594V24.9219ZM222.406 42.1875V34.6562C222.406 34.1146 222.318 33.651 222.141 33.2656C221.964 32.8698 221.688 32.5625 221.312 32.3438C220.948 32.125 220.474 32.0156 219.891 32.0156C219.391 32.0156 218.958 32.1042 218.594 32.2812C218.229 32.4479 217.948 32.6927 217.75 33.0156C217.552 33.3281 217.453 33.6979 217.453 34.125H212.953C212.953 33.4062 213.12 32.724 213.453 32.0781C213.786 31.4323 214.271 30.8646 214.906 30.375C215.542 29.875 216.297 29.4844 217.172 29.2031C218.057 28.9219 219.047 28.7812 220.141 28.7812C221.453 28.7812 222.62 29 223.641 29.4375C224.661 29.875 225.464 30.5312 226.047 31.4062C226.641 32.2812 226.938 33.375 226.938 34.6875V41.9219C226.938 42.849 226.995 43.6094 227.109 44.2031C227.224 44.7865 227.391 45.2969 227.609 45.7344V46H223.062C222.844 45.5417 222.677 44.9688 222.562 44.2812C222.458 43.5833 222.406 42.8854 222.406 42.1875ZM223 35.7031L223.031 38.25H220.516C219.922 38.25 219.406 38.3177 218.969 38.4531C218.531 38.5885 218.172 38.7812 217.891 39.0312C217.609 39.2708 217.401 39.5521 217.266 39.875C217.141 40.1979 217.078 40.5521 217.078 40.9375C217.078 41.3229 217.167 41.6719 217.344 41.9844C217.521 42.2865 217.776 42.526 218.109 42.7031C218.443 42.8698 218.833 42.9531 219.281 42.9531C219.958 42.9531 220.547 42.8177 221.047 42.5469C221.547 42.276 221.932 41.9427 222.203 41.5469C222.484 41.151 222.63 40.776 222.641 40.4219L223.828 42.3281C223.661 42.7552 223.432 43.1979 223.141 43.6562C222.859 44.1146 222.5 44.5469 222.062 44.9531C221.625 45.349 221.099 45.6771 220.484 45.9375C219.87 46.1875 219.141 46.3125 218.297 46.3125C217.224 46.3125 216.25 46.099 215.375 45.6719C214.51 45.2344 213.823 44.6354 213.312 43.875C212.812 43.1042 212.562 42.2292 212.562 41.25C212.562 40.3646 212.729 39.5781 213.062 38.8906C213.396 38.2031 213.885 37.625 214.531 37.1562C215.188 36.6771 216.005 36.3177 216.984 36.0781C217.964 35.8281 219.099 35.7031 220.391 35.7031H223ZM235.156 22V46H230.641V22H235.156ZM243.375 21.9844V46H238.875V21.9844H243.375ZM254.031 29.0938L246.688 37.4688L242.75 41.4531L241.109 38.2031L244.234 34.2344L248.625 29.0938H254.031ZM249.359 46L244.359 38.1875L247.469 35.4688L254.547 46H249.359ZM263.438 46.3125C262.125 46.3125 260.948 46.1042 259.906 45.6875C258.865 45.2604 257.979 44.6719 257.25 43.9219C256.531 43.1719 255.979 42.3021 255.594 41.3125C255.208 40.3125 255.016 39.25 255.016 38.125V37.5C255.016 36.2188 255.198 35.0469 255.562 33.9844C255.927 32.9219 256.448 32 257.125 31.2188C257.812 30.4375 258.646 29.8385 259.625 29.4219C260.604 28.9948 261.708 28.7812 262.938 28.7812C264.135 28.7812 265.198 28.9792 266.125 29.375C267.052 29.7708 267.828 30.3333 268.453 31.0625C269.089 31.7917 269.568 32.6667 269.891 33.6875C270.214 34.6979 270.375 35.8229 270.375 37.0625V38.9375H256.938V35.9375H265.953V35.5938C265.953 34.9688 265.839 34.4115 265.609 33.9219C265.391 33.4219 265.057 33.026 264.609 32.7344C264.161 32.4427 263.589 32.2969 262.891 32.2969C262.297 32.2969 261.786 32.4271 261.359 32.6875C260.932 32.9479 260.583 33.3125 260.312 33.7812C260.052 34.25 259.854 34.8021 259.719 35.4375C259.594 36.0625 259.531 36.75 259.531 37.5V38.125C259.531 38.8021 259.625 39.4271 259.812 40C260.01 40.5729 260.286 41.0677 260.641 41.4844C261.005 41.901 261.443 42.224 261.953 42.4531C262.474 42.6823 263.062 42.7969 263.719 42.7969C264.531 42.7969 265.286 42.6406 265.984 42.3281C266.693 42.0052 267.302 41.5208 267.812 40.875L270 43.25C269.646 43.7604 269.161 44.25 268.547 44.7188C267.943 45.1875 267.214 45.5729 266.359 45.875C265.505 46.1667 264.531 46.3125 263.438 46.3125ZM277.438 32.7812V46H272.938V29.0938H277.172L277.438 32.7812ZM282.531 28.9844L282.453 33.1562C282.234 33.125 281.969 33.099 281.656 33.0781C281.354 33.0469 281.078 33.0312 280.828 33.0312C280.193 33.0312 279.641 33.1146 279.172 33.2812C278.714 33.4375 278.328 33.6719 278.016 33.9844C277.714 34.2969 277.484 34.6771 277.328 35.125C277.182 35.5729 277.099 36.0833 277.078 36.6562L276.172 36.375C276.172 35.2812 276.281 34.276 276.5 33.3594C276.719 32.4323 277.036 31.625 277.453 30.9375C277.88 30.25 278.401 29.7188 279.016 29.3438C279.63 28.9688 280.333 28.7812 281.125 28.7812C281.375 28.7812 281.63 28.8021 281.891 28.8438C282.151 28.875 282.365 28.9219 282.531 28.9844Z" fill="white"/>
<path d="M148.22 175C149.797 175.007 151.361 174.701 152.82 174.1C154.279 173.499 155.604 172.616 156.72 171.5C157.835 170.384 158.719 169.059 159.32 167.6C159.92 166.141 160.226 164.578 160.22 163V139" stroke="white" stroke-width="7.8125" stroke-linecap="round" stroke-linejoin="round"/>
<path d="M192.22 175C190.642 175.007 189.079 174.701 187.62 174.1C186.161 173.499 184.835 172.616 183.72 171.5C182.604 170.384 181.72 169.059 181.12 167.6C180.519 166.141 180.213 164.578 180.22 163V139" stroke="white" stroke-width="7.8125" stroke-linecap="round" stroke-linejoin="round"/>
<path d="M182.22 139H190.22C191.797 138.993 193.361 139.299 194.82 139.9C196.278 140.501 197.604 141.384 198.72 142.5C199.835 143.616 200.719 144.941 201.32 146.4C201.92 147.859 202.226 149.422 202.22 151V155C202.213 156.578 202.519 158.141 203.12 159.6C203.72 161.059 204.604 162.384 205.72 163.5C206.835 164.616 208.161 165.499 209.62 166.1C211.078 166.701 212.642 167.007 214.22 167" stroke="white" stroke-width="7.8125" stroke-linecap="round" stroke-linejoin="round"/>
<path d="M158.22 139H150.22C148.642 138.993 147.079 139.299 145.62 139.9C144.161 140.501 142.835 141.384 141.72 142.5C140.604 143.616 139.72 144.941 139.12 146.4C138.519 147.859 138.213 149.422 138.22 151V155C138.226 156.578 137.92 158.141 137.32 159.6C136.719 161.059 135.835 162.384 134.72 163.5C133.604 164.616 132.279 165.499 130.82 166.1C129.361 166.701 127.797 167.007 126.22 167" stroke="white" stroke-width="7.8125" stroke-linecap="round" stroke-linejoin="round"/>
<path d="M158.22 115C161.533 115 164.22 112.314 164.22 109C164.22 105.686 161.533 103 158.22 103C154.906 103 152.22 105.686 152.22 109C152.22 112.314 154.906 115 158.22 115Z" stroke="white" stroke-width="2" stroke-linecap="round" stroke-linejoin="round"/>
<path d="M182.22 115C185.533 115 188.22 112.314 188.22 109C188.22 105.686 185.533 103 182.22 103C178.906 103 176.22 105.686 176.22 109C176.22 112.314 178.906 115 182.22 115Z" stroke="white" stroke-width="2" stroke-linecap="round" stroke-linejoin="round"/>
<path d="M164.22 109H176.22" stroke="white" stroke-width="2" stroke-linecap="round" stroke-linejoin="round"/>
<path d="M136.329 110C136.531 109.238 136.807 108.502 137.141 107.837C137.475 107.171 137.86 106.588 138.274 106.121C138.687 105.655 139.122 105.314 139.552 105.118C139.982 104.922 140.399 104.876 140.779 104.981L151.887 107.957" stroke="white" stroke-width="2" stroke-linecap="round" stroke-linejoin="round"/>
<path d="M188.329 107.678L199.437 104.701C199.817 104.596 200.234 104.643 200.664 104.838C201.094 105.034 201.528 105.375 201.942 105.842C202.356 106.308 202.741 106.891 203.075 107.557C203.409 108.223 203.685 108.958 203.887 109.72" stroke="white" stroke-width="2" stroke-linecap="round" stroke-linejoin="round"/>
<path d="M162.12 87C159.77 83.3225 156.532 80.2958 152.705 78.1986C148.877 76.1015 144.584 75.0015 140.22 75C138.279 78.3589 137.115 82.1094 136.812 85.9767C136.509 89.844 137.076 93.73 138.47 97.35C135.736 101.38 134.257 106.13 134.22 111V115C134.22 121.365 136.748 127.47 141.249 131.971C145.75 136.471 151.854 139 158.22 139H182.22C188.585 139 194.689 136.471 199.19 131.971C203.691 127.47 206.22 121.365 206.22 115V111C206.182 106.13 204.704 101.38 201.97 97.35C203.364 93.73 203.93 89.844 203.627 85.9767C203.324 82.1094 202.16 78.3589 200.22 75C195.855 75.0015 191.562 76.1015 187.735 78.1986C183.907 80.2958 180.67 83.3225 178.32 87H162.12Z" stroke="white" stroke-width="7.8125" stroke-linecap="round" stroke-linejoin="round"/>
<path d="M130.22 96H210.22" stroke="white" stroke-width="5" stroke-linecap="round" stroke-linejoin="round"/>
<path d="M140.39 94L157.197 70.1612C157.45 69.7999 157.789 69.5054 158.182 69.3031C158.576 69.1007 159.013 68.9967 159.456 69.0001C159.899 69.0034 160.335 69.114 160.726 69.3222C161.116 69.5304 161.45 69.83 161.697 70.1951L168.106 79.778C168.354 80.1553 168.693 80.4653 169.092 80.6798C169.49 80.8943 169.937 81.0067 170.39 81.0067C170.844 81.0067 171.29 80.8943 171.689 80.6798C172.088 80.4653 172.427 80.1553 172.675 79.778L179.084 70.1951C179.331 69.83 179.665 69.5304 180.055 69.3222C180.446 69.114 180.881 69.0034 181.325 69.0001C181.768 68.9967 182.205 69.1007 182.599 69.3031C182.992 69.5054 183.33 69.7999 183.584 70.1612L200.39 94" fill="white"/>
<path d="M140.39 94L157.197 70.1612C157.45 69.7999 157.789 69.5054 158.182 69.3031C158.576 69.1007 159.013 68.9967 159.456 69.0001C159.899 69.0034 160.335 69.114 160.726 69.3222C161.116 69.5304 161.45 69.83 161.697 70.1951L168.106 79.778C168.354 80.1553 168.693 80.4653 169.092 80.6798C169.49 80.8943 169.937 81.0067 170.39 81.0067C170.844 81.0067 171.29 80.8943 171.689 80.6798C172.088 80.4653 172.427 80.1553 172.675 79.778L179.084 70.1951C179.331 69.83 179.665 69.5304 180.055 69.3222C180.446 69.114 180.881 69.0034 181.325 69.0001C181.768 68.9967 182.205 69.1007 182.599 69.3031C182.992 69.5054 183.33 69.7999 183.584 70.1612L200.39 94" stroke="white" stroke-width="5.4179" stroke-linecap="round" stroke-linejoin="round"/>
<path d="M216.755 154.964L203.857 171.412" stroke="white" stroke-width="4" stroke-linecap="round" stroke-linejoin="round"/>
<path d="M223.78 155.663C230.408 155.663 235.78 150.29 235.78 143.663C235.78 137.035 230.408 131.663 223.78 131.663C217.153 131.663 211.78 137.035 211.78 143.663C211.78 150.29 217.153 155.663 223.78 155.663Z" stroke="white" stroke-width="4" stroke-linecap="round" stroke-linejoin="round"/>
<line x1="71.5" y1="189" x2="290.5" y2="189" stroke="white" stroke-width="4"/>
<path d="M74.3828 199.172V209.25H72.9297V197.547H74.2578L74.3828 199.172ZM80.0781 201.703V201.867C80.0781 202.482 80.0052 203.052 79.8594 203.578C79.7135 204.099 79.5 204.552 79.2188 204.938C78.9427 205.323 78.6016 205.622 78.1953 205.836C77.7891 206.05 77.3229 206.156 76.7969 206.156C76.2604 206.156 75.7865 206.068 75.375 205.891C74.9635 205.714 74.6146 205.456 74.3281 205.117C74.0417 204.779 73.8125 204.372 73.6406 203.899C73.474 203.425 73.3594 202.891 73.2969 202.297V201.422C73.3594 200.797 73.4766 200.237 73.6484 199.742C73.8203 199.247 74.0469 198.826 74.3281 198.477C74.6146 198.122 74.9609 197.854 75.3672 197.672C75.7734 197.484 76.2422 197.391 76.7734 197.391C77.3047 197.391 77.776 197.495 78.1875 197.703C78.599 197.906 78.9453 198.198 79.2266 198.578C79.5078 198.958 79.7188 199.414 79.8594 199.945C80.0052 200.471 80.0781 201.057 80.0781 201.703ZM78.625 201.867V201.703C78.625 201.281 78.5807 200.885 78.4922 200.516C78.4036 200.141 78.2656 199.813 78.0781 199.531C77.8958 199.245 77.6615 199.021 77.375 198.859C77.0885 198.693 76.7474 198.609 76.3516 198.609C75.987 198.609 75.6693 198.672 75.3984 198.797C75.1328 198.922 74.9062 199.091 74.7188 199.305C74.5312 199.513 74.3776 199.753 74.2578 200.024C74.1432 200.289 74.0573 200.565 74 200.852V202.875C74.1042 203.24 74.25 203.583 74.4375 203.906C74.625 204.224 74.875 204.482 75.1875 204.68C75.5 204.872 75.8932 204.969 76.3672 204.969C76.7578 204.969 77.0938 204.888 77.375 204.727C77.6615 204.56 77.8958 204.333 78.0781 204.047C78.2656 203.76 78.4036 203.432 78.4922 203.063C78.5807 202.688 78.625 202.289 78.625 201.867ZM87.0938 204.047V197.547H88.5469V206H87.1641L87.0938 204.047ZM87.3672 202.266L87.9688 202.25C87.9688 202.813 87.9089 203.333 87.7891 203.813C87.6745 204.287 87.487 204.698 87.2266 205.047C86.9661 205.396 86.625 205.669 86.2031 205.867C85.7812 206.06 85.2682 206.156 84.6641 206.156C84.2526 206.156 83.875 206.096 83.5312 205.977C83.1927 205.857 82.901 205.672 82.6562 205.422C82.4115 205.172 82.2214 204.846 82.0859 204.445C81.9557 204.044 81.8906 203.563 81.8906 203V197.547H83.3359V203.016C83.3359 203.396 83.3776 203.711 83.4609 203.961C83.5495 204.206 83.6667 204.401 83.8125 204.547C83.9635 204.688 84.1302 204.787 84.3125 204.844C84.5 204.901 84.6927 204.93 84.8906 204.93C85.5052 204.93 85.9922 204.813 86.3516 204.578C86.7109 204.339 86.9688 204.018 87.125 203.617C87.2865 203.211 87.3672 202.76 87.3672 202.266ZM92.3203 194V206H90.8672V194H92.3203ZM99.625 204.555V200.203C99.625 199.87 99.5573 199.581 99.4219 199.336C99.2917 199.086 99.0938 198.893 98.8281 198.758C98.5625 198.622 98.2344 198.555 97.8438 198.555C97.4792 198.555 97.1589 198.617 96.8828 198.742C96.612 198.867 96.3984 199.031 96.2422 199.234C96.0911 199.438 96.0156 199.656 96.0156 199.891H94.5703C94.5703 199.589 94.6484 199.289 94.8047 198.992C94.9609 198.695 95.1849 198.427 95.4766 198.188C95.7734 197.943 96.1276 197.75 96.5391 197.609C96.9557 197.464 97.4193 197.391 97.9297 197.391C98.5443 197.391 99.0859 197.495 99.5547 197.703C100.029 197.912 100.398 198.227 100.664 198.649C100.935 199.065 101.07 199.589 101.07 200.219V204.156C101.07 204.438 101.094 204.737 101.141 205.055C101.193 205.372 101.268 205.646 101.367 205.875V206H99.8594C99.7865 205.833 99.7292 205.612 99.6875 205.336C99.6458 205.055 99.625 204.794 99.625 204.555ZM99.875 200.875L99.8906 201.891H98.4297C98.0182 201.891 97.651 201.925 97.3281 201.992C97.0052 202.055 96.7344 202.151 96.5156 202.281C96.2969 202.412 96.1302 202.576 96.0156 202.774C95.901 202.966 95.8438 203.193 95.8438 203.453C95.8438 203.719 95.9036 203.961 96.0234 204.18C96.1432 204.399 96.3229 204.573 96.5625 204.703C96.8073 204.828 97.1068 204.891 97.4609 204.891C97.9036 204.891 98.2943 204.797 98.6328 204.609C98.9714 204.422 99.2396 204.193 99.4375 203.922C99.6406 203.651 99.75 203.388 99.7656 203.133L100.383 203.828C100.346 204.047 100.247 204.289 100.086 204.555C99.9245 204.82 99.7083 205.076 99.4375 205.32C99.1719 205.56 98.8542 205.76 98.4844 205.922C98.1198 206.078 97.7083 206.156 97.25 206.156C96.6771 206.156 96.1745 206.044 95.7422 205.82C95.3151 205.596 94.9818 205.297 94.7422 204.922C94.5078 204.542 94.3906 204.117 94.3906 203.649C94.3906 203.195 94.4792 202.797 94.6562 202.453C94.8333 202.104 95.0885 201.815 95.4219 201.586C95.7552 201.352 96.1562 201.175 96.625 201.055C97.0938 200.935 97.6172 200.875 98.1953 200.875H99.875ZM104.789 199.352V206H103.344V197.547H104.711L104.789 199.352ZM104.445 201.453L103.844 201.43C103.849 200.852 103.935 200.318 104.102 199.828C104.268 199.333 104.503 198.904 104.805 198.539C105.107 198.175 105.466 197.893 105.883 197.695C106.305 197.492 106.771 197.391 107.281 197.391C107.698 197.391 108.073 197.448 108.406 197.563C108.74 197.672 109.023 197.849 109.258 198.094C109.497 198.339 109.68 198.656 109.805 199.047C109.93 199.432 109.992 199.904 109.992 200.461V206H108.539V200.445C108.539 200.003 108.474 199.649 108.344 199.383C108.214 199.112 108.023 198.917 107.773 198.797C107.523 198.672 107.216 198.609 106.852 198.609C106.492 198.609 106.164 198.685 105.867 198.836C105.576 198.987 105.323 199.195 105.109 199.461C104.901 199.727 104.737 200.031 104.617 200.375C104.503 200.714 104.445 201.073 104.445 201.453ZM117.516 204.359V194H118.969V206H117.641L117.516 204.359ZM111.828 201.867V201.703C111.828 201.057 111.906 200.471 112.062 199.945C112.224 199.414 112.451 198.958 112.742 198.578C113.039 198.198 113.391 197.906 113.797 197.703C114.208 197.495 114.667 197.391 115.172 197.391C115.703 197.391 116.167 197.484 116.562 197.672C116.964 197.854 117.302 198.122 117.578 198.477C117.859 198.826 118.081 199.247 118.242 199.742C118.404 200.237 118.516 200.797 118.578 201.422V202.141C118.521 202.76 118.409 203.318 118.242 203.813C118.081 204.307 117.859 204.729 117.578 205.078C117.302 205.427 116.964 205.695 116.562 205.883C116.161 206.065 115.693 206.156 115.156 206.156C114.661 206.156 114.208 206.05 113.797 205.836C113.391 205.622 113.039 205.323 112.742 204.938C112.451 204.552 112.224 204.099 112.062 203.578C111.906 203.052 111.828 202.482 111.828 201.867ZM113.281 201.703V201.867C113.281 202.289 113.323 202.685 113.406 203.055C113.495 203.425 113.63 203.75 113.812 204.031C113.995 204.313 114.227 204.534 114.508 204.695C114.789 204.852 115.125 204.93 115.516 204.93C115.995 204.93 116.388 204.828 116.695 204.625C117.008 204.422 117.258 204.154 117.445 203.82C117.633 203.487 117.779 203.125 117.883 202.734V200.852C117.82 200.565 117.729 200.289 117.609 200.024C117.495 199.753 117.344 199.513 117.156 199.305C116.974 199.091 116.747 198.922 116.477 198.797C116.211 198.672 115.896 198.609 115.531 198.609C115.135 198.609 114.794 198.693 114.508 198.859C114.227 199.021 113.995 199.245 113.812 199.531C113.63 199.813 113.495 200.141 113.406 200.516C113.323 200.885 113.281 201.281 113.281 201.703ZM120.836 201.867V201.688C120.836 201.078 120.924 200.513 121.102 199.992C121.279 199.466 121.534 199.01 121.867 198.625C122.201 198.234 122.604 197.932 123.078 197.719C123.552 197.5 124.083 197.391 124.672 197.391C125.266 197.391 125.799 197.5 126.273 197.719C126.753 197.932 127.159 198.234 127.492 198.625C127.831 199.01 128.089 199.466 128.266 199.992C128.443 200.513 128.531 201.078 128.531 201.688V201.867C128.531 202.477 128.443 203.042 128.266 203.563C128.089 204.083 127.831 204.539 127.492 204.93C127.159 205.315 126.755 205.617 126.281 205.836C125.812 206.05 125.281 206.156 124.688 206.156C124.094 206.156 123.56 206.05 123.086 205.836C122.612 205.617 122.206 205.315 121.867 204.93C121.534 204.539 121.279 204.083 121.102 203.563C120.924 203.042 120.836 202.477 120.836 201.867ZM122.281 201.688V201.867C122.281 202.289 122.331 202.688 122.43 203.063C122.529 203.432 122.677 203.76 122.875 204.047C123.078 204.333 123.331 204.56 123.633 204.727C123.935 204.888 124.286 204.969 124.688 204.969C125.083 204.969 125.43 204.888 125.727 204.727C126.029 204.56 126.279 204.333 126.477 204.047C126.674 203.76 126.823 203.432 126.922 203.063C127.026 202.688 127.078 202.289 127.078 201.867V201.688C127.078 201.271 127.026 200.878 126.922 200.508C126.823 200.133 126.672 199.802 126.469 199.516C126.271 199.224 126.021 198.995 125.719 198.828C125.422 198.662 125.073 198.578 124.672 198.578C124.276 198.578 123.927 198.662 123.625 198.828C123.328 198.995 123.078 199.224 122.875 199.516C122.677 199.802 122.529 200.133 122.43 200.508C122.331 200.878 122.281 201.271 122.281 201.688ZM139.641 204.359V194H141.094V206H139.766L139.641 204.359ZM133.953 201.867V201.703C133.953 201.057 134.031 200.471 134.188 199.945C134.349 199.414 134.576 198.958 134.867 198.578C135.164 198.198 135.516 197.906 135.922 197.703C136.333 197.495 136.792 197.391 137.297 197.391C137.828 197.391 138.292 197.484 138.688 197.672C139.089 197.854 139.427 198.122 139.703 198.477C139.984 198.826 140.206 199.247 140.367 199.742C140.529 200.237 140.641 200.797 140.703 201.422V202.141C140.646 202.76 140.534 203.318 140.367 203.813C140.206 204.307 139.984 204.729 139.703 205.078C139.427 205.427 139.089 205.695 138.688 205.883C138.286 206.065 137.818 206.156 137.281 206.156C136.786 206.156 136.333 206.05 135.922 205.836C135.516 205.622 135.164 205.323 134.867 204.938C134.576 204.552 134.349 204.099 134.188 203.578C134.031 203.052 133.953 202.482 133.953 201.867ZM135.406 201.703V201.867C135.406 202.289 135.448 202.685 135.531 203.055C135.62 203.425 135.755 203.75 135.938 204.031C136.12 204.313 136.352 204.534 136.633 204.695C136.914 204.852 137.25 204.93 137.641 204.93C138.12 204.93 138.513 204.828 138.82 204.625C139.133 204.422 139.383 204.154 139.57 203.82C139.758 203.487 139.904 203.125 140.008 202.734V200.852C139.945 200.565 139.854 200.289 139.734 200.024C139.62 199.753 139.469 199.513 139.281 199.305C139.099 199.091 138.872 198.922 138.602 198.797C138.336 198.672 138.021 198.609 137.656 198.609C137.26 198.609 136.919 198.693 136.633 198.859C136.352 199.021 136.12 199.245 135.938 199.531C135.755 199.813 135.62 200.141 135.531 200.516C135.448 200.885 135.406 201.281 135.406 201.703ZM146.852 206.156C146.263 206.156 145.729 206.057 145.25 205.859C144.776 205.656 144.367 205.372 144.023 205.008C143.685 204.643 143.424 204.211 143.242 203.711C143.06 203.211 142.969 202.664 142.969 202.07V201.742C142.969 201.055 143.07 200.443 143.273 199.906C143.477 199.365 143.753 198.906 144.102 198.531C144.451 198.156 144.846 197.872 145.289 197.68C145.732 197.487 146.19 197.391 146.664 197.391C147.268 197.391 147.789 197.495 148.227 197.703C148.669 197.912 149.031 198.203 149.312 198.578C149.594 198.948 149.802 199.385 149.938 199.891C150.073 200.391 150.141 200.938 150.141 201.531V202.18H143.828V201H148.695V200.891C148.674 200.516 148.596 200.151 148.461 199.797C148.331 199.443 148.122 199.151 147.836 198.922C147.549 198.693 147.159 198.578 146.664 198.578C146.336 198.578 146.034 198.649 145.758 198.789C145.482 198.925 145.245 199.128 145.047 199.399C144.849 199.669 144.695 200 144.586 200.391C144.477 200.781 144.422 201.232 144.422 201.742V202.07C144.422 202.471 144.477 202.849 144.586 203.203C144.701 203.552 144.865 203.859 145.078 204.125C145.297 204.391 145.56 204.599 145.867 204.75C146.18 204.901 146.534 204.977 146.93 204.977C147.44 204.977 147.872 204.872 148.227 204.664C148.581 204.456 148.891 204.177 149.156 203.828L150.031 204.524C149.849 204.8 149.617 205.063 149.336 205.313C149.055 205.563 148.708 205.766 148.297 205.922C147.891 206.078 147.409 206.156 146.852 206.156ZM160.781 204.555V200.203C160.781 199.87 160.714 199.581 160.578 199.336C160.448 199.086 160.25 198.893 159.984 198.758C159.719 198.622 159.391 198.555 159 198.555C158.635 198.555 158.315 198.617 158.039 198.742C157.768 198.867 157.555 199.031 157.398 199.234C157.247 199.438 157.172 199.656 157.172 199.891H155.727C155.727 199.589 155.805 199.289 155.961 198.992C156.117 198.695 156.341 198.427 156.633 198.188C156.93 197.943 157.284 197.75 157.695 197.609C158.112 197.464 158.576 197.391 159.086 197.391C159.701 197.391 160.242 197.495 160.711 197.703C161.185 197.912 161.555 198.227 161.82 198.649C162.091 199.065 162.227 199.589 162.227 200.219V204.156C162.227 204.438 162.25 204.737 162.297 205.055C162.349 205.372 162.424 205.646 162.523 205.875V206H161.016C160.943 205.833 160.885 205.612 160.844 205.336C160.802 205.055 160.781 204.794 160.781 204.555ZM161.031 200.875L161.047 201.891H159.586C159.174 201.891 158.807 201.925 158.484 201.992C158.161 202.055 157.891 202.151 157.672 202.281C157.453 202.412 157.286 202.576 157.172 202.774C157.057 202.966 157 203.193 157 203.453C157 203.719 157.06 203.961 157.18 204.18C157.299 204.399 157.479 204.573 157.719 204.703C157.964 204.828 158.263 204.891 158.617 204.891C159.06 204.891 159.451 204.797 159.789 204.609C160.128 204.422 160.396 204.193 160.594 203.922C160.797 203.651 160.906 203.388 160.922 203.133L161.539 203.828C161.503 204.047 161.404 204.289 161.242 204.555C161.081 204.82 160.865 205.076 160.594 205.32C160.328 205.56 160.01 205.76 159.641 205.922C159.276 206.078 158.865 206.156 158.406 206.156C157.833 206.156 157.331 206.044 156.898 205.82C156.471 205.596 156.138 205.297 155.898 204.922C155.664 204.542 155.547 204.117 155.547 203.649C155.547 203.195 155.635 202.797 155.812 202.453C155.99 202.104 156.245 201.815 156.578 201.586C156.911 201.352 157.312 201.175 157.781 201.055C158.25 200.935 158.773 200.875 159.352 200.875H161.031ZM166.07 194V206H164.617V194H166.07ZM171.898 206.156C171.31 206.156 170.776 206.057 170.297 205.859C169.823 205.656 169.414 205.372 169.07 205.008C168.732 204.643 168.471 204.211 168.289 203.711C168.107 203.211 168.016 202.664 168.016 202.07V201.742C168.016 201.055 168.117 200.443 168.32 199.906C168.523 199.365 168.799 198.906 169.148 198.531C169.497 198.156 169.893 197.872 170.336 197.68C170.779 197.487 171.237 197.391 171.711 197.391C172.315 197.391 172.836 197.495 173.273 197.703C173.716 197.912 174.078 198.203 174.359 198.578C174.641 198.948 174.849 199.385 174.984 199.891C175.12 200.391 175.188 200.938 175.188 201.531V202.18H168.875V201H173.742V200.891C173.721 200.516 173.643 200.151 173.508 199.797C173.378 199.443 173.169 199.151 172.883 198.922C172.596 198.693 172.206 198.578 171.711 198.578C171.383 198.578 171.081 198.649 170.805 198.789C170.529 198.925 170.292 199.128 170.094 199.399C169.896 199.669 169.742 200 169.633 200.391C169.523 200.781 169.469 201.232 169.469 201.742V202.07C169.469 202.471 169.523 202.849 169.633 203.203C169.747 203.552 169.911 203.859 170.125 204.125C170.344 204.391 170.607 204.599 170.914 204.75C171.227 204.901 171.581 204.977 171.977 204.977C172.487 204.977 172.919 204.872 173.273 204.664C173.628 204.456 173.938 204.177 174.203 203.828L175.078 204.524C174.896 204.8 174.664 205.063 174.383 205.313C174.102 205.563 173.755 205.766 173.344 205.922C172.938 206.078 172.456 206.156 171.898 206.156ZM182.352 197.547H183.664V205.82C183.664 206.565 183.513 207.201 183.211 207.727C182.909 208.253 182.487 208.651 181.945 208.922C181.409 209.198 180.789 209.336 180.086 209.336C179.794 209.336 179.451 209.289 179.055 209.195C178.664 209.107 178.279 208.953 177.898 208.734C177.523 208.521 177.208 208.232 176.953 207.867L177.711 207.008C178.065 207.435 178.435 207.732 178.82 207.899C179.211 208.065 179.596 208.149 179.977 208.149C180.435 208.149 180.831 208.063 181.164 207.891C181.497 207.719 181.755 207.464 181.938 207.125C182.125 206.792 182.219 206.38 182.219 205.891V199.406L182.352 197.547ZM176.531 201.867V201.703C176.531 201.057 176.607 200.471 176.758 199.945C176.914 199.414 177.135 198.958 177.422 198.578C177.714 198.198 178.065 197.906 178.477 197.703C178.888 197.495 179.352 197.391 179.867 197.391C180.398 197.391 180.862 197.484 181.258 197.672C181.659 197.854 181.997 198.122 182.273 198.477C182.555 198.826 182.776 199.247 182.938 199.742C183.099 200.237 183.211 200.797 183.273 201.422V202.141C183.216 202.76 183.104 203.318 182.938 203.813C182.776 204.307 182.555 204.729 182.273 205.078C181.997 205.427 181.659 205.695 181.258 205.883C180.857 206.065 180.388 206.156 179.852 206.156C179.346 206.156 178.888 206.05 178.477 205.836C178.07 205.622 177.721 205.323 177.43 204.938C177.138 204.552 176.914 204.099 176.758 203.578C176.607 203.052 176.531 202.482 176.531 201.867ZM177.977 201.703V201.867C177.977 202.289 178.018 202.685 178.102 203.055C178.19 203.425 178.323 203.75 178.5 204.031C178.682 204.313 178.914 204.534 179.195 204.695C179.477 204.852 179.812 204.93 180.203 204.93C180.682 204.93 181.078 204.828 181.391 204.625C181.703 204.422 181.951 204.154 182.133 203.82C182.32 203.487 182.466 203.125 182.57 202.734V200.852C182.513 200.565 182.424 200.289 182.305 200.024C182.19 199.753 182.039 199.513 181.852 199.305C181.669 199.091 181.443 198.922 181.172 198.797C180.901 198.672 180.583 198.609 180.219 198.609C179.823 198.609 179.482 198.693 179.195 198.859C178.914 199.021 178.682 199.245 178.5 199.531C178.323 199.813 178.19 200.141 178.102 200.516C178.018 200.885 177.977 201.281 177.977 201.703ZM187.305 198.875V206H185.859V197.547H187.266L187.305 198.875ZM189.945 197.5L189.938 198.844C189.818 198.818 189.703 198.802 189.594 198.797C189.49 198.787 189.37 198.781 189.234 198.781C188.901 198.781 188.607 198.833 188.352 198.938C188.096 199.042 187.88 199.188 187.703 199.375C187.526 199.563 187.385 199.787 187.281 200.047C187.182 200.302 187.117 200.583 187.086 200.891L186.68 201.125C186.68 200.615 186.729 200.135 186.828 199.688C186.932 199.24 187.091 198.844 187.305 198.5C187.518 198.151 187.789 197.88 188.117 197.688C188.451 197.49 188.846 197.391 189.305 197.391C189.409 197.391 189.529 197.404 189.664 197.43C189.799 197.451 189.893 197.474 189.945 197.5ZM192.852 197.547V206H191.398V197.547H192.852ZM191.289 195.305C191.289 195.07 191.359 194.872 191.5 194.711C191.646 194.55 191.859 194.469 192.141 194.469C192.417 194.469 192.628 194.55 192.773 194.711C192.924 194.872 193 195.07 193 195.305C193 195.529 192.924 195.721 192.773 195.883C192.628 196.039 192.417 196.117 192.141 196.117C191.859 196.117 191.646 196.039 191.5 195.883C191.359 195.721 191.289 195.529 191.289 195.305ZM200.156 204.555V200.203C200.156 199.87 200.089 199.581 199.953 199.336C199.823 199.086 199.625 198.893 199.359 198.758C199.094 198.622 198.766 198.555 198.375 198.555C198.01 198.555 197.69 198.617 197.414 198.742C197.143 198.867 196.93 199.031 196.773 199.234C196.622 199.438 196.547 199.656 196.547 199.891H195.102C195.102 199.589 195.18 199.289 195.336 198.992C195.492 198.695 195.716 198.427 196.008 198.188C196.305 197.943 196.659 197.75 197.07 197.609C197.487 197.464 197.951 197.391 198.461 197.391C199.076 197.391 199.617 197.495 200.086 197.703C200.56 197.912 200.93 198.227 201.195 198.649C201.466 199.065 201.602 199.589 201.602 200.219V204.156C201.602 204.438 201.625 204.737 201.672 205.055C201.724 205.372 201.799 205.646 201.898 205.875V206H200.391C200.318 205.833 200.26 205.612 200.219 205.336C200.177 205.055 200.156 204.794 200.156 204.555ZM200.406 200.875L200.422 201.891H198.961C198.549 201.891 198.182 201.925 197.859 201.992C197.536 202.055 197.266 202.151 197.047 202.281C196.828 202.412 196.661 202.576 196.547 202.774C196.432 202.966 196.375 203.193 196.375 203.453C196.375 203.719 196.435 203.961 196.555 204.18C196.674 204.399 196.854 204.573 197.094 204.703C197.339 204.828 197.638 204.891 197.992 204.891C198.435 204.891 198.826 204.797 199.164 204.609C199.503 204.422 199.771 204.193 199.969 203.922C200.172 203.651 200.281 203.388 200.297 203.133L200.914 203.828C200.878 204.047 200.779 204.289 200.617 204.555C200.456 204.82 200.24 205.076 199.969 205.32C199.703 205.56 199.385 205.76 199.016 205.922C198.651 206.078 198.24 206.156 197.781 206.156C197.208 206.156 196.706 206.044 196.273 205.82C195.846 205.596 195.513 205.297 195.273 204.922C195.039 204.542 194.922 204.117 194.922 203.649C194.922 203.195 195.01 202.797 195.188 202.453C195.365 202.104 195.62 201.815 195.953 201.586C196.286 201.352 196.688 201.175 197.156 201.055C197.625 200.935 198.148 200.875 198.727 200.875H200.406ZM209.289 199.172V209.25H207.836V197.547H209.164L209.289 199.172ZM214.984 201.703V201.867C214.984 202.482 214.911 203.052 214.766 203.578C214.62 204.099 214.406 204.552 214.125 204.938C213.849 205.323 213.508 205.622 213.102 205.836C212.695 206.05 212.229 206.156 211.703 206.156C211.167 206.156 210.693 206.068 210.281 205.891C209.87 205.714 209.521 205.456 209.234 205.117C208.948 204.779 208.719 204.372 208.547 203.899C208.38 203.425 208.266 202.891 208.203 202.297V201.422C208.266 200.797 208.383 200.237 208.555 199.742C208.727 199.247 208.953 198.826 209.234 198.477C209.521 198.122 209.867 197.854 210.273 197.672C210.68 197.484 211.148 197.391 211.68 197.391C212.211 197.391 212.682 197.495 213.094 197.703C213.505 197.906 213.852 198.198 214.133 198.578C214.414 198.958 214.625 199.414 214.766 199.945C214.911 200.471 214.984 201.057 214.984 201.703ZM213.531 201.867V201.703C213.531 201.281 213.487 200.885 213.398 200.516C213.31 200.141 213.172 199.813 212.984 199.531C212.802 199.245 212.568 199.021 212.281 198.859C211.995 198.693 211.654 198.609 211.258 198.609C210.893 198.609 210.576 198.672 210.305 198.797C210.039 198.922 209.812 199.091 209.625 199.305C209.438 199.513 209.284 199.753 209.164 200.024C209.049 200.289 208.964 200.565 208.906 200.852V202.875C209.01 203.24 209.156 203.583 209.344 203.906C209.531 204.224 209.781 204.482 210.094 204.68C210.406 204.872 210.799 204.969 211.273 204.969C211.664 204.969 212 204.888 212.281 204.727C212.568 204.56 212.802 204.333 212.984 204.047C213.172 203.76 213.31 203.432 213.398 203.063C213.487 202.688 213.531 202.289 213.531 201.867ZM218.273 198.875V206H216.828V197.547H218.234L218.273 198.875ZM220.914 197.5L220.906 198.844C220.786 198.818 220.672 198.802 220.562 198.797C220.458 198.787 220.339 198.781 220.203 198.781C219.87 198.781 219.576 198.833 219.32 198.938C219.065 199.042 218.849 199.188 218.672 199.375C218.495 199.563 218.354 199.787 218.25 200.047C218.151 200.302 218.086 200.583 218.055 200.891L217.648 201.125C217.648 200.615 217.698 200.135 217.797 199.688C217.901 199.24 218.06 198.844 218.273 198.5C218.487 198.151 218.758 197.88 219.086 197.688C219.419 197.49 219.815 197.391 220.273 197.391C220.378 197.391 220.497 197.404 220.633 197.43C220.768 197.451 220.862 197.474 220.914 197.5ZM226.922 204.555V200.203C226.922 199.87 226.854 199.581 226.719 199.336C226.589 199.086 226.391 198.893 226.125 198.758C225.859 198.622 225.531 198.555 225.141 198.555C224.776 198.555 224.456 198.617 224.18 198.742C223.909 198.867 223.695 199.031 223.539 199.234C223.388 199.438 223.312 199.656 223.312 199.891H221.867C221.867 199.589 221.945 199.289 222.102 198.992C222.258 198.695 222.482 198.427 222.773 198.188C223.07 197.943 223.424 197.75 223.836 197.609C224.253 197.464 224.716 197.391 225.227 197.391C225.841 197.391 226.383 197.495 226.852 197.703C227.326 197.912 227.695 198.227 227.961 198.649C228.232 199.065 228.367 199.589 228.367 200.219V204.156C228.367 204.438 228.391 204.737 228.438 205.055C228.49 205.372 228.565 205.646 228.664 205.875V206H227.156C227.083 205.833 227.026 205.612 226.984 205.336C226.943 205.055 226.922 204.794 226.922 204.555ZM227.172 200.875L227.188 201.891H225.727C225.315 201.891 224.948 201.925 224.625 201.992C224.302 202.055 224.031 202.151 223.812 202.281C223.594 202.412 223.427 202.576 223.312 202.774C223.198 202.966 223.141 203.193 223.141 203.453C223.141 203.719 223.201 203.961 223.32 204.18C223.44 204.399 223.62 204.573 223.859 204.703C224.104 204.828 224.404 204.891 224.758 204.891C225.201 204.891 225.591 204.797 225.93 204.609C226.268 204.422 226.536 204.193 226.734 203.922C226.938 203.651 227.047 203.388 227.062 203.133L227.68 203.828C227.643 204.047 227.544 204.289 227.383 204.555C227.221 204.82 227.005 205.076 226.734 205.32C226.469 205.56 226.151 205.76 225.781 205.922C225.417 206.078 225.005 206.156 224.547 206.156C223.974 206.156 223.471 206.044 223.039 205.82C222.612 205.596 222.279 205.297 222.039 204.922C221.805 204.542 221.688 204.117 221.688 203.649C221.688 203.195 221.776 202.797 221.953 202.453C222.13 202.104 222.385 201.815 222.719 201.586C223.052 201.352 223.453 201.175 223.922 201.055C224.391 200.935 224.914 200.875 225.492 200.875H227.172ZM239.531 203.758C239.531 203.55 239.484 203.357 239.391 203.18C239.302 202.997 239.117 202.833 238.836 202.688C238.56 202.537 238.143 202.406 237.586 202.297C237.117 202.198 236.693 202.081 236.312 201.945C235.938 201.81 235.617 201.646 235.352 201.453C235.091 201.26 234.891 201.034 234.75 200.774C234.609 200.513 234.539 200.208 234.539 199.859C234.539 199.526 234.612 199.211 234.758 198.914C234.909 198.617 235.12 198.354 235.391 198.125C235.667 197.896 235.997 197.716 236.383 197.586C236.768 197.456 237.198 197.391 237.672 197.391C238.349 197.391 238.927 197.51 239.406 197.75C239.885 197.99 240.253 198.31 240.508 198.711C240.763 199.107 240.891 199.547 240.891 200.031H239.445C239.445 199.797 239.375 199.57 239.234 199.352C239.099 199.128 238.898 198.943 238.633 198.797C238.372 198.651 238.052 198.578 237.672 198.578C237.271 198.578 236.945 198.641 236.695 198.766C236.451 198.885 236.271 199.039 236.156 199.227C236.047 199.414 235.992 199.612 235.992 199.82C235.992 199.977 236.018 200.117 236.07 200.242C236.128 200.362 236.227 200.474 236.367 200.578C236.508 200.677 236.706 200.771 236.961 200.859C237.216 200.948 237.542 201.037 237.938 201.125C238.63 201.281 239.201 201.469 239.648 201.688C240.096 201.906 240.43 202.175 240.648 202.492C240.867 202.81 240.977 203.195 240.977 203.649C240.977 204.018 240.898 204.357 240.742 204.664C240.591 204.971 240.37 205.237 240.078 205.461C239.792 205.68 239.448 205.852 239.047 205.977C238.651 206.096 238.206 206.156 237.711 206.156C236.966 206.156 236.336 206.024 235.82 205.758C235.305 205.492 234.914 205.149 234.648 204.727C234.383 204.305 234.25 203.859 234.25 203.391H235.703C235.724 203.787 235.839 204.102 236.047 204.336C236.255 204.565 236.51 204.729 236.812 204.828C237.115 204.922 237.414 204.969 237.711 204.969C238.107 204.969 238.438 204.917 238.703 204.813C238.974 204.708 239.18 204.565 239.32 204.383C239.461 204.201 239.531 203.992 239.531 203.758ZM246.414 197.547V198.656H241.844V197.547H246.414ZM243.391 195.492H244.836V203.906C244.836 204.193 244.88 204.409 244.969 204.555C245.057 204.701 245.172 204.797 245.312 204.844C245.453 204.891 245.604 204.914 245.766 204.914C245.885 204.914 246.01 204.904 246.141 204.883C246.276 204.857 246.378 204.836 246.445 204.82L246.453 206C246.339 206.037 246.188 206.07 246 206.102C245.818 206.138 245.596 206.156 245.336 206.156C244.982 206.156 244.656 206.086 244.359 205.945C244.062 205.805 243.826 205.57 243.648 205.242C243.477 204.909 243.391 204.461 243.391 203.899V195.492ZM253.094 204.555V200.203C253.094 199.87 253.026 199.581 252.891 199.336C252.76 199.086 252.562 198.893 252.297 198.758C252.031 198.622 251.703 198.555 251.312 198.555C250.948 198.555 250.628 198.617 250.352 198.742C250.081 198.867 249.867 199.031 249.711 199.234C249.56 199.438 249.484 199.656 249.484 199.891H248.039C248.039 199.589 248.117 199.289 248.273 198.992C248.43 198.695 248.654 198.427 248.945 198.188C249.242 197.943 249.596 197.75 250.008 197.609C250.424 197.464 250.888 197.391 251.398 197.391C252.013 197.391 252.555 197.495 253.023 197.703C253.497 197.912 253.867 198.227 254.133 198.649C254.404 199.065 254.539 199.589 254.539 200.219V204.156C254.539 204.438 254.562 204.737 254.609 205.055C254.661 205.372 254.737 205.646 254.836 205.875V206H253.328C253.255 205.833 253.198 205.612 253.156 205.336C253.115 205.055 253.094 204.794 253.094 204.555ZM253.344 200.875L253.359 201.891H251.898C251.487 201.891 251.12 201.925 250.797 201.992C250.474 202.055 250.203 202.151 249.984 202.281C249.766 202.412 249.599 202.576 249.484 202.774C249.37 202.966 249.312 203.193 249.312 203.453C249.312 203.719 249.372 203.961 249.492 204.18C249.612 204.399 249.792 204.573 250.031 204.703C250.276 204.828 250.576 204.891 250.93 204.891C251.372 204.891 251.763 204.797 252.102 204.609C252.44 204.422 252.708 204.193 252.906 203.922C253.109 203.651 253.219 203.388 253.234 203.133L253.852 203.828C253.815 204.047 253.716 204.289 253.555 204.555C253.393 204.82 253.177 205.076 252.906 205.32C252.641 205.56 252.323 205.76 251.953 205.922C251.589 206.078 251.177 206.156 250.719 206.156C250.146 206.156 249.643 206.044 249.211 205.82C248.784 205.596 248.451 205.297 248.211 204.922C247.977 204.542 247.859 204.117 247.859 203.649C247.859 203.195 247.948 202.797 248.125 202.453C248.302 202.104 248.557 201.815 248.891 201.586C249.224 201.352 249.625 201.175 250.094 201.055C250.562 200.935 251.086 200.875 251.664 200.875H253.344ZM258.383 194V206H256.93V194H258.383ZM262.156 194V206H260.703V194H262.156ZM267.32 197.547L263.633 201.492L261.57 203.633L261.453 202.094L262.93 200.328L265.555 197.547H267.32ZM266 206L262.984 201.969L263.734 200.68L267.703 206H266ZM272.164 206.156C271.576 206.156 271.042 206.057 270.562 205.859C270.089 205.656 269.68 205.372 269.336 205.008C268.997 204.643 268.737 204.211 268.555 203.711C268.372 203.211 268.281 202.664 268.281 202.07V201.742C268.281 201.055 268.383 200.443 268.586 199.906C268.789 199.365 269.065 198.906 269.414 198.531C269.763 198.156 270.159 197.872 270.602 197.68C271.044 197.487 271.503 197.391 271.977 197.391C272.581 197.391 273.102 197.495 273.539 197.703C273.982 197.912 274.344 198.203 274.625 198.578C274.906 198.948 275.115 199.385 275.25 199.891C275.385 200.391 275.453 200.938 275.453 201.531V202.18H269.141V201H274.008V200.891C273.987 200.516 273.909 200.151 273.773 199.797C273.643 199.443 273.435 199.151 273.148 198.922C272.862 198.693 272.471 198.578 271.977 198.578C271.648 198.578 271.346 198.649 271.07 198.789C270.794 198.925 270.557 199.128 270.359 199.399C270.161 199.669 270.008 200 269.898 200.391C269.789 200.781 269.734 201.232 269.734 201.742V202.07C269.734 202.471 269.789 202.849 269.898 203.203C270.013 203.552 270.177 203.859 270.391 204.125C270.609 204.391 270.872 204.599 271.18 204.75C271.492 204.901 271.846 204.977 272.242 204.977C272.753 204.977 273.185 204.872 273.539 204.664C273.893 204.456 274.203 204.177 274.469 203.828L275.344 204.524C275.161 204.8 274.93 205.063 274.648 205.313C274.367 205.563 274.021 205.766 273.609 205.922C273.203 206.078 272.721 206.156 272.164 206.156ZM282.125 204.555V200.203C282.125 199.87 282.057 199.581 281.922 199.336C281.792 199.086 281.594 198.893 281.328 198.758C281.062 198.622 280.734 198.555 280.344 198.555C279.979 198.555 279.659 198.617 279.383 198.742C279.112 198.867 278.898 199.031 278.742 199.234C278.591 199.438 278.516 199.656 278.516 199.891H277.07C277.07 199.589 277.148 199.289 277.305 198.992C277.461 198.695 277.685 198.427 277.977 198.188C278.273 197.943 278.628 197.75 279.039 197.609C279.456 197.464 279.919 197.391 280.43 197.391C281.044 197.391 281.586 197.495 282.055 197.703C282.529 197.912 282.898 198.227 283.164 198.649C283.435 199.065 283.57 199.589 283.57 200.219V204.156C283.57 204.438 283.594 204.737 283.641 205.055C283.693 205.372 283.768 205.646 283.867 205.875V206H282.359C282.286 205.833 282.229 205.612 282.188 205.336C282.146 205.055 282.125 204.794 282.125 204.555ZM282.375 200.875L282.391 201.891H280.93C280.518 201.891 280.151 201.925 279.828 201.992C279.505 202.055 279.234 202.151 279.016 202.281C278.797 202.412 278.63 202.576 278.516 202.774C278.401 202.966 278.344 203.193 278.344 203.453C278.344 203.719 278.404 203.961 278.523 204.18C278.643 204.399 278.823 204.573 279.062 204.703C279.307 204.828 279.607 204.891 279.961 204.891C280.404 204.891 280.794 204.797 281.133 204.609C281.471 204.422 281.74 204.193 281.938 203.922C282.141 203.651 282.25 203.388 282.266 203.133L282.883 203.828C282.846 204.047 282.747 204.289 282.586 204.555C282.424 204.82 282.208 205.076 281.938 205.32C281.672 205.56 281.354 205.76 280.984 205.922C280.62 206.078 280.208 206.156 279.75 206.156C279.177 206.156 278.674 206.044 278.242 205.82C277.815 205.596 277.482 205.297 277.242 204.922C277.008 204.542 276.891 204.117 276.891 203.649C276.891 203.195 276.979 202.797 277.156 202.453C277.333 202.104 277.589 201.815 277.922 201.586C278.255 201.352 278.656 201.175 279.125 201.055C279.594 200.935 280.117 200.875 280.695 200.875H282.375ZM287.289 198.875V206H285.844V197.547H287.25L287.289 198.875ZM289.93 197.5L289.922 198.844C289.802 198.818 289.688 198.802 289.578 198.797C289.474 198.787 289.354 198.781 289.219 198.781C288.885 198.781 288.591 198.833 288.336 198.938C288.081 199.042 287.865 199.188 287.688 199.375C287.51 199.563 287.37 199.787 287.266 200.047C287.167 200.302 287.102 200.583 287.07 200.891L286.664 201.125C286.664 200.615 286.714 200.135 286.812 199.688C286.917 199.24 287.076 198.844 287.289 198.5C287.503 198.151 287.773 197.88 288.102 197.688C288.435 197.49 288.831 197.391 289.289 197.391C289.393 197.391 289.513 197.404 289.648 197.43C289.784 197.451 289.878 197.474 289.93 197.5Z" fill="white"/>
<path d="M23.8281 237.125H25.3281V244.82C25.3281 245.675 25.138 246.385 24.7578 246.953C24.3776 247.521 23.8724 247.948 23.2422 248.234C22.6172 248.516 21.9375 248.656 21.2031 248.656C20.4323 248.656 19.7344 248.516 19.1094 248.234C18.4896 247.948 17.9974 247.521 17.6328 246.953C17.2734 246.385 17.0938 245.675 17.0938 244.82V237.125H18.5859V244.82C18.5859 245.414 18.6953 245.904 18.9141 246.289C19.1328 246.675 19.4375 246.961 19.8281 247.149C20.224 247.336 20.6823 247.43 21.2031 247.43C21.7292 247.43 22.1875 247.336 22.5781 247.149C22.974 246.961 23.2812 246.675 23.5 246.289C23.7188 245.904 23.8281 245.414 23.8281 244.82V237.125ZM32.3984 246.258C32.3984 246.05 32.3516 245.857 32.2578 245.68C32.1693 245.497 31.9844 245.333 31.7031 245.188C31.4271 245.037 31.0104 244.906 30.4531 244.797C29.9844 244.698 29.5599 244.581 29.1797 244.445C28.8047 244.31 28.4844 244.146 28.2188 243.953C27.9583 243.76 27.7578 243.534 27.6172 243.274C27.4766 243.013 27.4062 242.708 27.4062 242.359C27.4062 242.026 27.4792 241.711 27.625 241.414C27.776 241.117 27.987 240.854 28.2578 240.625C28.5339 240.396 28.8646 240.216 29.25 240.086C29.6354 239.956 30.0651 239.891 30.5391 239.891C31.2161 239.891 31.7943 240.01 32.2734 240.25C32.7526 240.49 33.1198 240.81 33.375 241.211C33.6302 241.607 33.7578 242.047 33.7578 242.531H32.3125C32.3125 242.297 32.2422 242.07 32.1016 241.852C31.9661 241.628 31.7656 241.443 31.5 241.297C31.2396 241.151 30.9193 241.078 30.5391 241.078C30.138 241.078 29.8125 241.141 29.5625 241.266C29.3177 241.385 29.138 241.539 29.0234 241.727C28.9141 241.914 28.8594 242.112 28.8594 242.32C28.8594 242.477 28.8854 242.617 28.9375 242.742C28.9948 242.862 29.0938 242.974 29.2344 243.078C29.375 243.177 29.5729 243.271 29.8281 243.359C30.0833 243.448 30.4089 243.537 30.8047 243.625C31.4974 243.781 32.0677 243.969 32.5156 244.188C32.9635 244.406 33.2969 244.675 33.5156 244.992C33.7344 245.31 33.8438 245.695 33.8438 246.149C33.8438 246.518 33.7656 246.857 33.6094 247.164C33.4583 247.471 33.237 247.737 32.9453 247.961C32.6589 248.18 32.3151 248.352 31.9141 248.477C31.5182 248.596 31.0729 248.656 30.5781 248.656C29.8333 248.656 29.2031 248.524 28.6875 248.258C28.1719 247.992 27.7812 247.649 27.5156 247.227C27.25 246.805 27.1172 246.359 27.1172 245.891H28.5703C28.5911 246.287 28.7057 246.602 28.9141 246.836C29.1224 247.065 29.3776 247.229 29.6797 247.328C29.9818 247.422 30.2812 247.469 30.5781 247.469C30.974 247.469 31.3047 247.417 31.5703 247.313C31.8411 247.208 32.0469 247.065 32.1875 246.883C32.3281 246.701 32.3984 246.492 32.3984 246.258ZM39.25 248.656C38.6615 248.656 38.1276 248.557 37.6484 248.359C37.1745 248.156 36.7656 247.872 36.4219 247.508C36.0833 247.143 35.8229 246.711 35.6406 246.211C35.4583 245.711 35.3672 245.164 35.3672 244.57V244.242C35.3672 243.555 35.4688 242.943 35.6719 242.406C35.875 241.865 36.151 241.406 36.5 241.031C36.849 240.656 37.2448 240.372 37.6875 240.18C38.1302 239.987 38.5885 239.891 39.0625 239.891C39.6667 239.891 40.1875 239.995 40.625 240.203C41.0677 240.412 41.4297 240.703 41.7109 241.078C41.9922 241.448 42.2005 241.885 42.3359 242.391C42.4714 242.891 42.5391 243.438 42.5391 244.031V244.68H36.2266V243.5H41.0938V243.391C41.0729 243.016 40.9948 242.651 40.8594 242.297C40.7292 241.943 40.5208 241.651 40.2344 241.422C39.9479 241.193 39.5573 241.078 39.0625 241.078C38.7344 241.078 38.4323 241.149 38.1562 241.289C37.8802 241.425 37.6432 241.628 37.4453 241.899C37.2474 242.169 37.0938 242.5 36.9844 242.891C36.875 243.281 36.8203 243.732 36.8203 244.242V244.57C36.8203 244.971 36.875 245.349 36.9844 245.703C37.099 246.052 37.263 246.359 37.4766 246.625C37.6953 246.891 37.9583 247.099 38.2656 247.25C38.5781 247.401 38.9323 247.477 39.3281 247.477C39.8385 247.477 40.2708 247.372 40.625 247.164C40.9792 246.956 41.2891 246.677 41.5547 246.328L42.4297 247.024C42.2474 247.3 42.0156 247.563 41.7344 247.813C41.4531 248.063 41.1068 248.266 40.6953 248.422C40.2891 248.578 39.8073 248.656 39.25 248.656ZM45.6719 241.375V248.5H44.2266V240.047H45.6328L45.6719 241.375ZM48.3125 240L48.3047 241.344C48.1849 241.318 48.0703 241.302 47.9609 241.297C47.8568 241.287 47.737 241.281 47.6016 241.281C47.2682 241.281 46.974 241.333 46.7188 241.438C46.4635 241.542 46.2474 241.688 46.0703 241.875C45.8932 242.063 45.7526 242.287 45.6484 242.547C45.5495 242.802 45.4844 243.083 45.4531 243.391L45.0469 243.625C45.0469 243.115 45.0964 242.635 45.1953 242.188C45.2995 241.74 45.4583 241.344 45.6719 241C45.8854 240.651 46.1562 240.38 46.4844 240.188C46.8177 239.99 47.2135 239.891 47.6719 239.891C47.776 239.891 47.8958 239.904 48.0312 239.93C48.1667 239.951 48.2604 239.974 48.3125 240ZM62.5859 237.125V248.5H61.0703L55.3438 239.727V248.5H53.8359V237.125H55.3438L61.0938 245.922V237.125H62.5859ZM70.0234 247.055V242.703C70.0234 242.37 69.9557 242.081 69.8203 241.836C69.6901 241.586 69.4922 241.393 69.2266 241.258C68.9609 241.122 68.6328 241.055 68.2422 241.055C67.8776 241.055 67.5573 241.117 67.2812 241.242C67.0104 241.367 66.7969 241.531 66.6406 241.734C66.4896 241.938 66.4141 242.156 66.4141 242.391H64.9688C64.9688 242.089 65.0469 241.789 65.2031 241.492C65.3594 241.195 65.5833 240.927 65.875 240.688C66.1719 240.443 66.526 240.25 66.9375 240.109C67.3542 239.964 67.8177 239.891 68.3281 239.891C68.9427 239.891 69.4844 239.995 69.9531 240.203C70.4271 240.412 70.7969 240.727 71.0625 241.149C71.3333 241.565 71.4688 242.089 71.4688 242.719V246.656C71.4688 246.938 71.4922 247.237 71.5391 247.555C71.5911 247.872 71.6667 248.146 71.7656 248.375V248.5H70.2578C70.1849 248.333 70.1276 248.112 70.0859 247.836C70.0443 247.555 70.0234 247.294 70.0234 247.055ZM70.2734 243.375L70.2891 244.391H68.8281C68.4167 244.391 68.0495 244.425 67.7266 244.492C67.4036 244.555 67.1328 244.651 66.9141 244.781C66.6953 244.912 66.5286 245.076 66.4141 245.274C66.2995 245.466 66.2422 245.693 66.2422 245.953C66.2422 246.219 66.3021 246.461 66.4219 246.68C66.5417 246.899 66.7214 247.073 66.9609 247.203C67.2057 247.328 67.5052 247.391 67.8594 247.391C68.3021 247.391 68.6927 247.297 69.0312 247.109C69.3698 246.922 69.638 246.693 69.8359 246.422C70.0391 246.151 70.1484 245.888 70.1641 245.633L70.7812 246.328C70.7448 246.547 70.6458 246.789 70.4844 247.055C70.3229 247.32 70.1068 247.576 69.8359 247.82C69.5703 248.06 69.2526 248.26 68.8828 248.422C68.5182 248.578 68.1068 248.656 67.6484 248.656C67.0755 248.656 66.5729 248.544 66.1406 248.32C65.7135 248.096 65.3802 247.797 65.1406 247.422C64.9062 247.042 64.7891 246.617 64.7891 246.149C64.7891 245.695 64.8776 245.297 65.0547 244.953C65.2318 244.604 65.487 244.315 65.8203 244.086C66.1536 243.852 66.5547 243.675 67.0234 243.555C67.4922 243.435 68.0156 243.375 68.5938 243.375H70.2734ZM75.1797 241.727V248.5H73.7266V240.047H75.1016L75.1797 241.727ZM74.8828 243.953L74.2109 243.93C74.2161 243.352 74.2917 242.818 74.4375 242.328C74.5833 241.833 74.7995 241.404 75.0859 241.039C75.3724 240.675 75.7292 240.393 76.1562 240.195C76.5833 239.992 77.0781 239.891 77.6406 239.891C78.0365 239.891 78.401 239.948 78.7344 240.063C79.0677 240.172 79.3568 240.346 79.6016 240.586C79.8464 240.826 80.0365 241.133 80.1719 241.508C80.3073 241.883 80.375 242.336 80.375 242.867V248.5H78.9297V242.938C78.9297 242.495 78.8542 242.141 78.7031 241.875C78.5573 241.609 78.349 241.417 78.0781 241.297C77.8073 241.172 77.4896 241.109 77.125 241.109C76.6979 241.109 76.3411 241.185 76.0547 241.336C75.7682 241.487 75.5391 241.695 75.3672 241.961C75.1953 242.227 75.0703 242.531 74.9922 242.875C74.9193 243.214 74.8828 243.573 74.8828 243.953ZM80.3594 243.156L79.3906 243.453C79.3958 242.99 79.4714 242.544 79.6172 242.117C79.7682 241.69 79.9844 241.31 80.2656 240.977C80.5521 240.643 80.9036 240.38 81.3203 240.188C81.737 239.99 82.2135 239.891 82.75 239.891C83.2031 239.891 83.6042 239.951 83.9531 240.07C84.3073 240.19 84.6042 240.375 84.8438 240.625C85.0885 240.87 85.2734 241.185 85.3984 241.57C85.5234 241.956 85.5859 242.414 85.5859 242.945V248.5H84.1328V242.93C84.1328 242.456 84.0573 242.089 83.9062 241.828C83.7604 241.563 83.5521 241.378 83.2812 241.274C83.0156 241.164 82.6979 241.109 82.3281 241.109C82.0104 241.109 81.7292 241.164 81.4844 241.274C81.2396 241.383 81.0339 241.534 80.8672 241.727C80.7005 241.914 80.5729 242.13 80.4844 242.375C80.401 242.62 80.3594 242.88 80.3594 243.156ZM91.2812 248.656C90.6927 248.656 90.1589 248.557 89.6797 248.359C89.2057 248.156 88.7969 247.872 88.4531 247.508C88.1146 247.143 87.8542 246.711 87.6719 246.211C87.4896 245.711 87.3984 245.164 87.3984 244.57V244.242C87.3984 243.555 87.5 242.943 87.7031 242.406C87.9062 241.865 88.1823 241.406 88.5312 241.031C88.8802 240.656 89.276 240.372 89.7188 240.18C90.1615 239.987 90.6198 239.891 91.0938 239.891C91.6979 239.891 92.2188 239.995 92.6562 240.203C93.099 240.412 93.4609 240.703 93.7422 241.078C94.0234 241.448 94.2318 241.885 94.3672 242.391C94.5026 242.891 94.5703 243.438 94.5703 244.031V244.68H88.2578V243.5H93.125V243.391C93.1042 243.016 93.026 242.651 92.8906 242.297C92.7604 241.943 92.5521 241.651 92.2656 241.422C91.9792 241.193 91.5885 241.078 91.0938 241.078C90.7656 241.078 90.4635 241.149 90.1875 241.289C89.9115 241.425 89.6745 241.628 89.4766 241.899C89.2786 242.169 89.125 242.5 89.0156 242.891C88.9062 243.281 88.8516 243.732 88.8516 244.242V244.57C88.8516 244.971 88.9062 245.349 89.0156 245.703C89.1302 246.052 89.2943 246.359 89.5078 246.625C89.7266 246.891 89.9896 247.099 90.2969 247.25C90.6094 247.401 90.9635 247.477 91.3594 247.477C91.8698 247.477 92.3021 247.372 92.6562 247.164C93.0104 246.956 93.3203 246.677 93.5859 246.328L94.4609 247.024C94.2786 247.3 94.0469 247.563 93.7656 247.813C93.4844 248.063 93.138 248.266 92.7266 248.422C92.3203 248.578 91.8385 248.656 91.2812 248.656Z" fill="white"/>
<rect x="16" y="256.5" width="250" height="48" rx="4" fill="#F9FAFB"/>
<path d="M22.3223 284.117C21.9238 284.117 21.5547 284.041 21.2148 283.889C20.875 283.732 20.5781 283.516 20.3242 283.238C20.0703 282.957 19.8711 282.625 19.7266 282.242C19.5859 281.859 19.5156 281.44 19.5156 280.982V280.725C19.5156 280.252 19.5859 279.822 19.7266 279.436C19.8711 279.045 20.0664 278.709 20.3125 278.428C20.5586 278.143 20.8418 277.924 21.1621 277.772C21.4863 277.619 21.832 277.543 22.1992 277.543C22.5703 277.543 22.9062 277.611 23.207 277.748C23.5078 277.885 23.7656 278.076 23.9805 278.322C24.1953 278.568 24.3594 278.861 24.4727 279.201C24.5859 279.541 24.6426 279.916 24.6426 280.326V280.719H19.8086V280.291H24.1797V280.215C24.1758 279.816 24.0938 279.447 23.9336 279.107C23.7773 278.768 23.5527 278.494 23.2598 278.287C22.9668 278.076 22.6133 277.971 22.1992 277.971C21.8672 277.971 21.5645 278.041 21.291 278.182C21.0215 278.322 20.7891 278.518 20.5938 278.768C20.3984 279.014 20.248 279.305 20.1426 279.641C20.0371 279.973 19.9844 280.334 19.9844 280.725V280.982C19.9844 281.357 20.043 281.709 20.1602 282.037C20.2773 282.365 20.4414 282.654 20.6523 282.904C20.8633 283.15 21.1113 283.344 21.3965 283.484C21.6816 283.625 21.9941 283.695 22.334 283.695C22.7012 283.695 23.0371 283.631 23.3418 283.502C23.6465 283.373 23.9238 283.147 24.1738 282.822L24.4785 283.051C24.3379 283.254 24.168 283.436 23.9688 283.596C23.7695 283.756 23.5332 283.883 23.2598 283.977C22.9902 284.07 22.6777 284.117 22.3223 284.117ZM26.5527 279.014V284H26.0898V277.66H26.5469L26.5527 279.014ZM26.4648 280.344L26.2363 280.074C26.2715 279.738 26.3535 279.418 26.4824 279.113C26.6152 278.809 26.7891 278.539 27.0039 278.305C27.2227 278.07 27.4766 277.885 27.7656 277.748C28.0586 277.611 28.3809 277.543 28.7324 277.543C29.0488 277.543 29.332 277.588 29.582 277.678C29.832 277.764 30.043 277.9 30.2148 278.088C30.3906 278.275 30.5234 278.518 30.6133 278.815C30.7031 279.107 30.748 279.465 30.748 279.887V284H30.2852V279.887C30.2852 279.387 30.2168 279 30.0801 278.727C29.9434 278.449 29.752 278.254 29.5059 278.141C29.2637 278.027 28.9805 277.971 28.6562 277.971C28.2812 277.971 27.957 278.055 27.6836 278.223C27.4141 278.387 27.1914 278.596 27.0156 278.85C26.8398 279.1 26.7051 279.359 26.6113 279.629C26.5215 279.899 26.4727 280.137 26.4648 280.344ZM34.9258 277.66V278.082H31.8906V277.66H34.9258ZM33.0625 275.984H33.5312V282.471C33.5312 282.811 33.5723 283.068 33.6543 283.244C33.7402 283.416 33.8516 283.533 33.9883 283.596C34.1289 283.654 34.2793 283.684 34.4395 283.684C34.5527 283.684 34.6562 283.678 34.75 283.666C34.8477 283.654 34.9453 283.641 35.043 283.625L35.084 284.035C34.998 284.063 34.8867 284.082 34.75 284.094C34.6133 284.109 34.4922 284.117 34.3867 284.117C34.1211 284.117 33.8887 284.068 33.6895 283.971C33.4902 283.873 33.3359 283.705 33.2266 283.467C33.1172 283.225 33.0625 282.893 33.0625 282.471V275.984ZM38.8457 284.117C38.4473 284.117 38.0781 284.041 37.7383 283.889C37.3984 283.732 37.1016 283.516 36.8477 283.238C36.5938 282.957 36.3945 282.625 36.25 282.242C36.1094 281.859 36.0391 281.44 36.0391 280.982V280.725C36.0391 280.252 36.1094 279.822 36.25 279.436C36.3945 279.045 36.5898 278.709 36.8359 278.428C37.082 278.143 37.3652 277.924 37.6855 277.772C38.0098 277.619 38.3555 277.543 38.7227 277.543C39.0938 277.543 39.4297 277.611 39.7305 277.748C40.0312 277.885 40.2891 278.076 40.5039 278.322C40.7188 278.568 40.8828 278.861 40.9961 279.201C41.1094 279.541 41.166 279.916 41.166 280.326V280.719H36.332V280.291H40.7031V280.215C40.6992 279.816 40.6172 279.447 40.457 279.107C40.3008 278.768 40.0762 278.494 39.7832 278.287C39.4902 278.076 39.1367 277.971 38.7227 277.971C38.3906 277.971 38.0879 278.041 37.8145 278.182C37.5449 278.322 37.3125 278.518 37.1172 278.768C36.9219 279.014 36.7715 279.305 36.666 279.641C36.5605 279.973 36.5078 280.334 36.5078 280.725V280.982C36.5078 281.357 36.5664 281.709 36.6836 282.037C36.8008 282.365 36.9648 282.654 37.1758 282.904C37.3867 283.15 37.6348 283.344 37.9199 283.484C38.2051 283.625 38.5176 283.695 38.8574 283.695C39.2246 283.695 39.5605 283.631 39.8652 283.502C40.1699 283.373 40.4473 283.147 40.6973 282.822L41.002 283.051C40.8613 283.254 40.6914 283.436 40.4922 283.596C40.293 283.756 40.0566 283.883 39.7832 283.977C39.5137 284.07 39.2012 284.117 38.8457 284.117ZM43.0762 278.738V284H42.6133V277.66H43.0703L43.0762 278.738ZM45.4902 277.613L45.4609 278.035C45.3906 278.024 45.3203 278.014 45.25 278.006C45.1797 277.998 45.1055 277.994 45.0273 277.994C44.6914 277.994 44.3965 278.061 44.1426 278.193C43.8926 278.326 43.6816 278.508 43.5098 278.738C43.3418 278.969 43.2148 279.236 43.1289 279.541C43.043 279.846 42.998 280.172 42.9941 280.52L42.7656 280.566C42.7656 280.133 42.8105 279.732 42.9004 279.365C42.9941 278.998 43.1348 278.678 43.3223 278.404C43.5098 278.131 43.7461 277.92 44.0312 277.772C44.3164 277.619 44.6523 277.543 45.0391 277.543C45.1328 277.543 45.2188 277.551 45.2969 277.566C45.375 277.578 45.4395 277.594 45.4902 277.613ZM51.4785 283.379L53.5879 277.66H54.0977L51.332 285.037C51.2812 285.178 51.2168 285.334 51.1387 285.506C51.0605 285.682 50.959 285.85 50.834 286.01C50.709 286.17 50.5469 286.301 50.3477 286.402C50.1523 286.508 49.9102 286.561 49.6211 286.561C49.5547 286.561 49.4668 286.553 49.3574 286.537C49.252 286.525 49.1738 286.51 49.123 286.49L49.1172 286.08C49.1719 286.092 49.2441 286.102 49.334 286.109C49.4238 286.121 49.4863 286.127 49.5215 286.127C49.7793 286.127 49.9941 286.076 50.166 285.975C50.3418 285.877 50.4883 285.736 50.6055 285.553C50.7227 285.373 50.8262 285.16 50.916 284.914L51.4785 283.379ZM49.3047 277.66L51.5547 283.42L51.6895 283.9L51.332 284.123L48.7949 277.66H49.3047ZM54.7188 280.941V280.719C54.7188 280.254 54.7852 279.828 54.918 279.441C55.0547 279.055 55.2461 278.721 55.4922 278.44C55.7383 278.154 56.0312 277.934 56.3711 277.777C56.7148 277.621 57.0957 277.543 57.5137 277.543C57.9316 277.543 58.3125 277.621 58.6562 277.777C59 277.934 59.2949 278.154 59.541 278.44C59.791 278.721 59.9824 279.055 60.1152 279.441C60.248 279.828 60.3145 280.254 60.3145 280.719V280.941C60.3145 281.406 60.248 281.832 60.1152 282.219C59.9824 282.606 59.793 282.941 59.5469 283.227C59.3008 283.508 59.0059 283.727 58.6621 283.883C58.3223 284.039 57.9434 284.117 57.5254 284.117C57.1035 284.117 56.7207 284.039 56.377 283.883C56.0371 283.727 55.7422 283.508 55.4922 283.227C55.2461 282.941 55.0547 282.606 54.918 282.219C54.7852 281.832 54.7188 281.406 54.7188 280.941ZM55.1875 280.719V280.941C55.1875 281.309 55.2383 281.658 55.3398 281.99C55.4453 282.318 55.5977 282.611 55.7969 282.869C55.9961 283.123 56.2402 283.324 56.5293 283.473C56.8184 283.617 57.1504 283.69 57.5254 283.69C57.8926 283.69 58.2207 283.617 58.5098 283.473C58.7988 283.324 59.041 283.123 59.2363 282.869C59.4355 282.611 59.5859 282.318 59.6875 281.99C59.793 281.658 59.8457 281.309 59.8457 280.941V280.719C59.8457 280.359 59.793 280.016 59.6875 279.688C59.5859 279.359 59.4355 279.066 59.2363 278.809C59.0371 278.551 58.793 278.348 58.5039 278.199C58.2148 278.047 57.8848 277.971 57.5137 277.971C57.1426 277.971 56.8125 278.047 56.5234 278.199C56.2383 278.348 55.9941 278.551 55.791 278.809C55.5918 279.066 55.4414 279.359 55.3398 279.688C55.2383 280.016 55.1875 280.359 55.1875 280.719ZM65.998 282.535V277.66H66.4668V284H66.0039L65.998 282.535ZM66.0801 281.457L66.3848 281.445C66.3848 281.832 66.3359 282.188 66.2383 282.512C66.1445 282.836 65.9961 283.119 65.793 283.361C65.5938 283.6 65.3359 283.785 65.0195 283.918C64.7031 284.051 64.3242 284.117 63.8828 284.117C63.5742 284.117 63.291 284.074 63.0332 283.988C62.7793 283.899 62.5586 283.758 62.3711 283.566C62.1875 283.375 62.0449 283.125 61.9434 282.816C61.8457 282.508 61.7969 282.135 61.7969 281.697V277.66H62.2598V281.709C62.2598 282.076 62.3008 282.387 62.3828 282.641C62.4688 282.895 62.5859 283.098 62.7344 283.25C62.8828 283.402 63.0566 283.514 63.2559 283.584C63.4551 283.65 63.6719 283.684 63.9062 283.684C64.4531 283.684 64.8848 283.578 65.2012 283.367C65.5215 283.156 65.748 282.881 65.8809 282.541C66.0137 282.201 66.0801 281.84 66.0801 281.457ZM68.8691 278.738V284H68.4062V277.66H68.8633L68.8691 278.738ZM71.2832 277.613L71.2539 278.035C71.1836 278.024 71.1133 278.014 71.043 278.006C70.9727 277.998 70.8984 277.994 70.8203 277.994C70.4844 277.994 70.1895 278.061 69.9355 278.193C69.6855 278.326 69.4746 278.508 69.3027 278.738C69.1348 278.969 69.0078 279.236 68.9219 279.541C68.8359 279.846 68.791 280.172 68.7871 280.52L68.5586 280.566C68.5586 280.133 68.6035 279.732 68.6934 279.365C68.7871 278.998 68.9277 278.678 69.1152 278.404C69.3027 278.131 69.5391 277.92 69.8242 277.772C70.1094 277.619 70.4453 277.543 70.832 277.543C70.9258 277.543 71.0117 277.551 71.0898 277.566C71.168 277.578 71.2324 277.594 71.2832 277.613ZM79.5098 282.535V277.66H79.9785V284H79.5156L79.5098 282.535ZM79.5918 281.457L79.8965 281.445C79.8965 281.832 79.8477 282.188 79.75 282.512C79.6562 282.836 79.5078 283.119 79.3047 283.361C79.1055 283.6 78.8477 283.785 78.5312 283.918C78.2148 284.051 77.8359 284.117 77.3945 284.117C77.0859 284.117 76.8027 284.074 76.5449 283.988C76.291 283.899 76.0703 283.758 75.8828 283.566C75.6992 283.375 75.5566 283.125 75.4551 282.816C75.3574 282.508 75.3086 282.135 75.3086 281.697V277.66H75.7715V281.709C75.7715 282.076 75.8125 282.387 75.8945 282.641C75.9805 282.895 76.0977 283.098 76.2461 283.25C76.3945 283.402 76.5684 283.514 76.7676 283.584C76.9668 283.65 77.1836 283.684 77.418 283.684C77.9648 283.684 78.3965 283.578 78.7129 283.367C79.0332 283.156 79.2598 282.881 79.3926 282.541C79.5254 282.201 79.5918 281.84 79.5918 281.457ZM85.7852 282.424C85.7852 282.236 85.7344 282.051 85.6328 281.867C85.5352 281.684 85.3535 281.512 85.0879 281.352C84.8262 281.191 84.4453 281.057 83.9453 280.947C83.5898 280.869 83.2754 280.783 83.002 280.69C82.7324 280.596 82.5059 280.482 82.3223 280.35C82.1387 280.213 82 280.051 81.9062 279.863C81.8164 279.676 81.7715 279.451 81.7715 279.19C81.7715 278.963 81.8203 278.75 81.918 278.551C82.0156 278.352 82.1582 278.178 82.3457 278.029C82.5371 277.877 82.7656 277.758 83.0312 277.672C83.2969 277.586 83.5977 277.543 83.9336 277.543C84.4141 277.543 84.8242 277.623 85.1641 277.783C85.5078 277.94 85.7715 278.156 85.9551 278.434C86.1387 278.707 86.2305 279.025 86.2305 279.389H85.7617C85.7617 279.143 85.6914 278.912 85.5508 278.697C85.4102 278.482 85.2031 278.309 84.9297 278.176C84.6602 278.039 84.3281 277.971 83.9336 277.971C83.5352 277.971 83.2109 278.031 82.9609 278.152C82.7109 278.274 82.5273 278.428 82.4102 278.615C82.2969 278.799 82.2402 278.986 82.2402 279.178C82.2402 279.33 82.2617 279.473 82.3047 279.606C82.3516 279.734 82.4395 279.854 82.5684 279.963C82.6973 280.072 82.8828 280.178 83.125 280.279C83.3672 280.377 83.6816 280.469 84.0684 280.555C84.5762 280.668 84.9902 280.807 85.3105 280.971C85.6309 281.131 85.8672 281.328 86.0195 281.563C86.1719 281.793 86.248 282.076 86.248 282.412C86.248 282.662 86.1953 282.893 86.0898 283.104C85.9844 283.311 85.832 283.49 85.6328 283.643C85.4375 283.795 85.1992 283.912 84.918 283.994C84.6367 284.076 84.3242 284.117 83.9805 284.117C83.4609 284.117 83.0195 284.035 82.6562 283.871C82.2969 283.703 82.0234 283.482 81.8359 283.209C81.6523 282.936 81.5605 282.641 81.5605 282.324H82.0293C82.0566 282.672 82.1699 282.945 82.3691 283.145C82.5723 283.344 82.8184 283.484 83.1074 283.566C83.4004 283.649 83.6914 283.69 83.9805 283.69C84.375 283.69 84.7051 283.629 84.9707 283.508C85.2402 283.383 85.4434 283.225 85.5801 283.033C85.7168 282.838 85.7852 282.635 85.7852 282.424ZM90.2793 284.117C89.8809 284.117 89.5117 284.041 89.1719 283.889C88.832 283.732 88.5352 283.516 88.2812 283.238C88.0273 282.957 87.8281 282.625 87.6836 282.242C87.543 281.859 87.4727 281.44 87.4727 280.982V280.725C87.4727 280.252 87.543 279.822 87.6836 279.436C87.8281 279.045 88.0234 278.709 88.2695 278.428C88.5156 278.143 88.7988 277.924 89.1191 277.772C89.4434 277.619 89.7891 277.543 90.1562 277.543C90.5273 277.543 90.8633 277.611 91.1641 277.748C91.4648 277.885 91.7227 278.076 91.9375 278.322C92.1523 278.568 92.3164 278.861 92.4297 279.201C92.543 279.541 92.5996 279.916 92.5996 280.326V280.719H87.7656V280.291H92.1367V280.215C92.1328 279.816 92.0508 279.447 91.8906 279.107C91.7344 278.768 91.5098 278.494 91.2168 278.287C90.9238 278.076 90.5703 277.971 90.1562 277.971C89.8242 277.971 89.5215 278.041 89.248 278.182C88.9785 278.322 88.7461 278.518 88.5508 278.768C88.3555 279.014 88.2051 279.305 88.0996 279.641C87.9941 279.973 87.9414 280.334 87.9414 280.725V280.982C87.9414 281.357 88 281.709 88.1172 282.037C88.2344 282.365 88.3984 282.654 88.6094 282.904C88.8203 283.15 89.0684 283.344 89.3535 283.484C89.6387 283.625 89.9512 283.695 90.291 283.695C90.6582 283.695 90.9941 283.631 91.2988 283.502C91.6035 283.373 91.8809 283.147 92.1309 282.822L92.4355 283.051C92.2949 283.254 92.125 283.436 91.9258 283.596C91.7266 283.756 91.4902 283.883 91.2168 283.977C90.9473 284.07 90.6348 284.117 90.2793 284.117ZM94.5098 278.738V284H94.0469V277.66H94.5039L94.5098 278.738ZM96.9238 277.613L96.8945 278.035C96.8242 278.024 96.7539 278.014 96.6836 278.006C96.6133 277.998 96.5391 277.994 96.4609 277.994C96.125 277.994 95.8301 278.061 95.5762 278.193C95.3262 278.326 95.1152 278.508 94.9434 278.738C94.7754 278.969 94.6484 279.236 94.5625 279.541C94.4766 279.846 94.4316 280.172 94.4277 280.52L94.1992 280.566C94.1992 280.133 94.2441 279.732 94.334 279.365C94.4277 278.998 94.5684 278.678 94.7559 278.404C94.9434 278.131 95.1797 277.92 95.4648 277.772C95.75 277.619 96.0859 277.543 96.4727 277.543C96.5664 277.543 96.6523 277.551 96.7305 277.566C96.8086 277.578 96.873 277.594 96.9238 277.613ZM98.541 279.014V284H98.0781V277.66H98.5352L98.541 279.014ZM98.4531 280.344L98.2246 280.074C98.2598 279.738 98.3418 279.418 98.4707 279.113C98.6035 278.809 98.7773 278.539 98.9922 278.305C99.2109 278.07 99.4648 277.885 99.7539 277.748C100.047 277.611 100.369 277.543 100.721 277.543C101.037 277.543 101.32 277.588 101.57 277.678C101.82 277.764 102.031 277.9 102.203 278.088C102.379 278.275 102.512 278.518 102.602 278.815C102.691 279.107 102.736 279.465 102.736 279.887V284H102.273V279.887C102.273 279.387 102.205 279 102.068 278.727C101.932 278.449 101.74 278.254 101.494 278.141C101.252 278.027 100.969 277.971 100.645 277.971C100.27 277.971 99.9453 278.055 99.6719 278.223C99.4023 278.387 99.1797 278.596 99.0039 278.85C98.8281 279.1 98.6934 279.359 98.5996 279.629C98.5098 279.899 98.4609 280.137 98.4531 280.344ZM108.596 282.834V279.559C108.596 279.227 108.525 278.941 108.385 278.703C108.244 278.465 108.039 278.283 107.77 278.158C107.5 278.029 107.17 277.965 106.779 277.965C106.416 277.965 106.09 278.029 105.801 278.158C105.516 278.283 105.291 278.455 105.127 278.674C104.963 278.893 104.881 279.137 104.881 279.406L104.412 279.4C104.412 279.158 104.469 278.926 104.582 278.703C104.699 278.481 104.863 278.283 105.074 278.111C105.289 277.936 105.541 277.797 105.83 277.695C106.123 277.594 106.443 277.543 106.791 277.543C107.236 277.543 107.629 277.619 107.969 277.772C108.312 277.92 108.58 278.145 108.771 278.445C108.963 278.746 109.059 279.121 109.059 279.57V282.699C109.059 282.926 109.074 283.154 109.105 283.385C109.137 283.615 109.18 283.801 109.234 283.941V284H108.725C108.682 283.852 108.648 283.67 108.625 283.455C108.605 283.24 108.596 283.033 108.596 282.834ZM108.748 280.402L108.76 280.807H107.213C106.822 280.807 106.473 280.844 106.164 280.918C105.855 280.992 105.594 281.098 105.379 281.234C105.164 281.371 105 281.533 104.887 281.721C104.773 281.908 104.717 282.119 104.717 282.354C104.717 282.596 104.781 282.818 104.91 283.022C105.039 283.225 105.221 283.387 105.455 283.508C105.689 283.625 105.961 283.684 106.27 283.684C106.691 283.684 107.064 283.611 107.389 283.467C107.717 283.318 107.992 283.119 108.215 282.869C108.438 282.615 108.6 282.322 108.701 281.99L108.906 282.33C108.84 282.537 108.736 282.746 108.596 282.957C108.455 283.168 108.273 283.361 108.051 283.537C107.828 283.709 107.566 283.85 107.266 283.959C106.965 284.065 106.623 284.117 106.24 284.117C105.838 284.117 105.486 284.043 105.186 283.895C104.889 283.742 104.658 283.535 104.494 283.274C104.33 283.008 104.248 282.705 104.248 282.365C104.248 282.072 104.314 281.805 104.447 281.563C104.58 281.32 104.771 281.113 105.021 280.941C105.275 280.766 105.582 280.633 105.941 280.543C106.305 280.449 106.713 280.402 107.166 280.402H108.748ZM111.455 279.002V284H110.986V277.66H111.443L111.455 279.002ZM111.379 280.344L111.145 280.074C111.176 279.738 111.254 279.418 111.379 279.113C111.508 278.809 111.678 278.539 111.889 278.305C112.104 278.07 112.355 277.885 112.645 277.748C112.938 277.611 113.264 277.543 113.623 277.543C113.939 277.543 114.223 277.586 114.473 277.672C114.727 277.754 114.941 277.885 115.117 278.065C115.293 278.24 115.428 278.471 115.521 278.756C115.615 279.041 115.662 279.383 115.662 279.781V284H115.193V279.793C115.193 279.316 115.123 278.947 114.982 278.686C114.842 278.424 114.646 278.24 114.396 278.135C114.146 278.025 113.859 277.971 113.535 277.971C113.152 277.971 112.826 278.055 112.557 278.223C112.287 278.387 112.066 278.596 111.895 278.85C111.727 279.1 111.602 279.359 111.52 279.629C111.438 279.899 111.391 280.137 111.379 280.344ZM115.656 279.822L115.34 279.711C115.371 279.426 115.451 279.154 115.58 278.897C115.713 278.635 115.887 278.404 116.102 278.205C116.316 278.002 116.568 277.842 116.857 277.725C117.15 277.604 117.475 277.543 117.83 277.543C118.154 277.543 118.443 277.588 118.697 277.678C118.955 277.764 119.17 277.902 119.342 278.094C119.518 278.281 119.652 278.524 119.746 278.82C119.84 279.113 119.887 279.469 119.887 279.887V284H119.418V279.881C119.418 279.381 119.348 278.992 119.207 278.715C119.066 278.438 118.871 278.244 118.621 278.135C118.371 278.022 118.082 277.967 117.754 277.971C117.406 277.975 117.104 278.039 116.846 278.164C116.588 278.289 116.373 278.447 116.201 278.639C116.029 278.83 115.898 279.031 115.809 279.242C115.719 279.449 115.668 279.643 115.656 279.822ZM124.1 284.117C123.701 284.117 123.332 284.041 122.992 283.889C122.652 283.732 122.355 283.516 122.102 283.238C121.848 282.957 121.648 282.625 121.504 282.242C121.363 281.859 121.293 281.44 121.293 280.982V280.725C121.293 280.252 121.363 279.822 121.504 279.436C121.648 279.045 121.844 278.709 122.09 278.428C122.336 278.143 122.619 277.924 122.939 277.772C123.264 277.619 123.609 277.543 123.977 277.543C124.348 277.543 124.684 277.611 124.984 277.748C125.285 277.885 125.543 278.076 125.758 278.322C125.973 278.568 126.137 278.861 126.25 279.201C126.363 279.541 126.42 279.916 126.42 280.326V280.719H121.586V280.291H125.957V280.215C125.953 279.816 125.871 279.447 125.711 279.107C125.555 278.768 125.33 278.494 125.037 278.287C124.744 278.076 124.391 277.971 123.977 277.971C123.645 277.971 123.342 278.041 123.068 278.182C122.799 278.322 122.566 278.518 122.371 278.768C122.176 279.014 122.025 279.305 121.92 279.641C121.814 279.973 121.762 280.334 121.762 280.725V280.982C121.762 281.357 121.82 281.709 121.938 282.037C122.055 282.365 122.219 282.654 122.43 282.904C122.641 283.15 122.889 283.344 123.174 283.484C123.459 283.625 123.771 283.695 124.111 283.695C124.479 283.695 124.814 283.631 125.119 283.502C125.424 283.373 125.701 283.147 125.951 282.822L126.256 283.051C126.115 283.254 125.945 283.436 125.746 283.596C125.547 283.756 125.311 283.883 125.037 283.977C124.768 284.07 124.455 284.117 124.1 284.117Z" fill="black"/>
<rect x="270" y="256.5" width="77" height="48" rx="4" fill="#15803D"/>
<path d="M286.5 289.5C292.299 289.5 297 284.799 297 279C297 273.201 292.299 268.5 286.5 268.5C280.701 268.5 276 273.201 276 279C276 284.799 280.701 289.5 286.5 289.5Z" stroke="white" stroke-width="2" stroke-linecap="round" stroke-linejoin="round"/>
<path d="M293.925 286.425L300 292.5" stroke="white" stroke-width="2" stroke-linecap="round" stroke-linejoin="round"/>
<path d="M312.184 282.766C312.184 282.633 312.148 282.514 312.078 282.408C312.008 282.303 311.875 282.207 311.68 282.121C311.488 282.031 311.207 281.947 310.836 281.869C310.508 281.799 310.205 281.711 309.928 281.606C309.65 281.5 309.412 281.373 309.213 281.225C309.014 281.072 308.857 280.895 308.744 280.691C308.635 280.484 308.58 280.246 308.58 279.977C308.58 279.715 308.637 279.469 308.75 279.238C308.863 279.004 309.027 278.799 309.242 278.623C309.457 278.443 309.719 278.303 310.027 278.201C310.336 278.096 310.684 278.043 311.07 278.043C311.609 278.043 312.072 278.131 312.459 278.307C312.85 278.482 313.148 278.725 313.355 279.033C313.562 279.338 313.666 279.682 313.666 280.065H312.119C312.119 279.897 312.08 279.744 312.002 279.607C311.928 279.471 311.812 279.361 311.656 279.279C311.5 279.193 311.303 279.15 311.064 279.15C310.85 279.15 310.668 279.186 310.52 279.256C310.375 279.326 310.266 279.418 310.191 279.531C310.117 279.645 310.08 279.77 310.08 279.906C310.08 280.008 310.1 280.1 310.139 280.182C310.182 280.26 310.25 280.332 310.344 280.399C310.438 280.465 310.564 280.525 310.725 280.58C310.889 280.635 311.09 280.688 311.328 280.738C311.801 280.832 312.213 280.957 312.564 281.113C312.92 281.266 313.197 281.469 313.396 281.723C313.596 281.977 313.695 282.301 313.695 282.695C313.695 282.977 313.635 283.234 313.514 283.469C313.393 283.699 313.217 283.9 312.986 284.072C312.756 284.244 312.48 284.379 312.16 284.477C311.84 284.57 311.479 284.617 311.076 284.617C310.494 284.617 310.002 284.514 309.6 284.307C309.197 284.096 308.893 283.83 308.686 283.51C308.479 283.186 308.375 282.85 308.375 282.502H309.857C309.869 282.748 309.936 282.945 310.057 283.094C310.178 283.242 310.33 283.35 310.514 283.416C310.701 283.479 310.898 283.51 311.105 283.51C311.34 283.51 311.537 283.479 311.697 283.416C311.857 283.35 311.979 283.262 312.061 283.152C312.143 283.039 312.184 282.91 312.184 282.766ZM317.721 284.617C317.24 284.617 316.809 284.539 316.426 284.383C316.043 284.227 315.717 284.01 315.447 283.732C315.182 283.451 314.977 283.125 314.832 282.754C314.691 282.379 314.621 281.977 314.621 281.547V281.313C314.621 280.824 314.691 280.381 314.832 279.982C314.973 279.58 315.172 279.234 315.43 278.945C315.688 278.656 315.996 278.434 316.355 278.277C316.715 278.121 317.111 278.043 317.545 278.043C317.994 278.043 318.391 278.119 318.734 278.272C319.078 278.42 319.365 278.631 319.596 278.904C319.826 279.178 320 279.506 320.117 279.889C320.234 280.268 320.293 280.688 320.293 281.149V281.799H315.324V280.732H318.77V280.615C318.762 280.369 318.715 280.145 318.629 279.941C318.543 279.734 318.41 279.57 318.23 279.449C318.051 279.324 317.818 279.262 317.533 279.262C317.303 279.262 317.102 279.313 316.93 279.414C316.762 279.512 316.621 279.652 316.508 279.836C316.398 280.016 316.316 280.231 316.262 280.481C316.207 280.731 316.18 281.008 316.18 281.313V281.547C316.18 281.813 316.215 282.059 316.285 282.285C316.359 282.512 316.467 282.709 316.607 282.877C316.752 283.041 316.924 283.17 317.123 283.264C317.326 283.354 317.557 283.399 317.814 283.399C318.139 283.399 318.432 283.336 318.693 283.211C318.959 283.082 319.189 282.893 319.385 282.643L320.164 283.451C320.031 283.647 319.852 283.834 319.625 284.014C319.402 284.193 319.133 284.34 318.816 284.453C318.5 284.563 318.135 284.617 317.721 284.617ZM324.822 283.152V280.229C324.822 280.014 324.785 279.828 324.711 279.672C324.637 279.516 324.523 279.395 324.371 279.309C324.219 279.223 324.025 279.18 323.791 279.18C323.584 279.18 323.402 279.215 323.246 279.285C323.094 279.356 322.977 279.455 322.895 279.584C322.812 279.709 322.771 279.854 322.771 280.018H321.219C321.219 279.756 321.281 279.508 321.406 279.274C321.531 279.035 321.709 278.824 321.939 278.641C322.174 278.453 322.453 278.307 322.777 278.201C323.105 278.096 323.473 278.043 323.879 278.043C324.359 278.043 324.787 278.125 325.162 278.289C325.541 278.449 325.838 278.691 326.053 279.016C326.271 279.34 326.381 279.748 326.381 280.24V283.006C326.381 283.322 326.4 283.594 326.439 283.82C326.482 284.043 326.545 284.236 326.627 284.4V284.5H325.051C324.977 284.34 324.92 284.137 324.881 283.891C324.842 283.641 324.822 283.395 324.822 283.152ZM325.039 280.639L325.051 281.559H324.072C323.83 281.559 323.617 281.584 323.434 281.635C323.25 281.682 323.1 281.752 322.982 281.846C322.865 281.936 322.777 282.045 322.719 282.174C322.66 282.299 322.631 282.441 322.631 282.602C322.631 282.758 322.666 282.899 322.736 283.024C322.811 283.149 322.916 283.248 323.053 283.322C323.193 283.393 323.357 283.428 323.545 283.428C323.818 283.428 324.057 283.373 324.26 283.264C324.463 283.15 324.621 283.014 324.734 282.854C324.848 282.693 324.908 282.541 324.916 282.397L325.361 283.065C325.307 283.225 325.225 283.395 325.115 283.574C325.006 283.754 324.865 283.922 324.693 284.078C324.521 284.234 324.314 284.363 324.072 284.465C323.83 284.566 323.549 284.617 323.229 284.617C322.818 284.617 322.451 284.535 322.127 284.371C321.803 284.207 321.547 283.982 321.359 283.697C321.172 283.412 321.078 283.088 321.078 282.725C321.078 282.389 321.141 282.092 321.266 281.834C321.391 281.576 321.576 281.359 321.822 281.184C322.068 281.004 322.373 280.869 322.736 280.779C323.104 280.686 323.523 280.639 323.996 280.639H325.039ZM329.322 279.455V284.5H327.775V278.16H329.24L329.322 279.455ZM331.25 278.119L331.227 279.561C331.141 279.545 331.043 279.533 330.934 279.525C330.828 279.518 330.729 279.514 330.635 279.514C330.396 279.514 330.188 279.547 330.008 279.613C329.828 279.676 329.678 279.768 329.557 279.889C329.439 280.01 329.35 280.158 329.287 280.334C329.225 280.506 329.189 280.701 329.182 280.92L328.848 280.879C328.848 280.477 328.889 280.104 328.971 279.76C329.053 279.416 329.172 279.115 329.328 278.857C329.484 278.6 329.68 278.4 329.914 278.26C330.152 278.115 330.426 278.043 330.734 278.043C330.82 278.043 330.912 278.051 331.01 278.066C331.111 278.078 331.191 278.096 331.25 278.119ZM334.584 283.399C334.803 283.399 334.998 283.356 335.17 283.27C335.342 283.184 335.479 283.063 335.58 282.906C335.686 282.75 335.742 282.568 335.75 282.361H337.209C337.201 282.791 337.08 283.176 336.846 283.516C336.611 283.856 336.299 284.125 335.908 284.324C335.521 284.52 335.088 284.617 334.607 284.617C334.119 284.617 333.693 284.535 333.33 284.371C332.967 284.207 332.664 283.979 332.422 283.686C332.184 283.393 332.004 283.053 331.883 282.666C331.766 282.279 331.707 281.865 331.707 281.424V281.236C331.707 280.795 331.766 280.381 331.883 279.994C332.004 279.607 332.184 279.268 332.422 278.975C332.664 278.682 332.967 278.453 333.33 278.289C333.693 278.125 334.117 278.043 334.602 278.043C335.113 278.043 335.562 278.143 335.949 278.342C336.34 278.541 336.645 278.822 336.863 279.186C337.086 279.549 337.201 279.977 337.209 280.469H335.75C335.742 280.242 335.691 280.039 335.598 279.859C335.504 279.68 335.371 279.535 335.199 279.426C335.027 279.316 334.818 279.262 334.572 279.262C334.311 279.262 334.092 279.316 333.916 279.426C333.744 279.535 333.609 279.686 333.512 279.877C333.418 280.065 333.352 280.275 333.312 280.51C333.277 280.74 333.26 280.982 333.26 281.236V281.424C333.26 281.682 333.277 281.928 333.312 282.162C333.352 282.397 333.418 282.607 333.512 282.795C333.609 282.979 333.744 283.125 333.916 283.234C334.092 283.344 334.314 283.399 334.584 283.399ZM339.758 275.5V284.5H338.205V275.5H339.758ZM339.512 281.102H339.055C339.055 280.66 339.113 280.254 339.23 279.883C339.348 279.512 339.514 279.19 339.729 278.916C339.943 278.639 340.199 278.424 340.496 278.272C340.797 278.119 341.129 278.043 341.492 278.043C341.805 278.043 342.088 278.088 342.342 278.178C342.6 278.264 342.82 278.402 343.004 278.594C343.188 278.785 343.328 279.035 343.426 279.344C343.527 279.649 343.578 280.02 343.578 280.457V284.5H342.02V280.445C342.02 280.152 341.977 279.922 341.891 279.754C341.805 279.582 341.682 279.459 341.521 279.385C341.365 279.311 341.172 279.274 340.941 279.274C340.691 279.274 340.477 279.322 340.297 279.42C340.117 279.514 339.969 279.645 339.852 279.813C339.738 279.981 339.652 280.174 339.594 280.393C339.539 280.611 339.512 280.848 339.512 281.102Z" fill="white"/>
</svg>
