<svg width="48" height="48" viewBox="0 0 48 48" fill="none" xmlns="http://www.w3.org/2000/svg">
<g clip-path="url(#clip0_5_175)">
<path d="M24.0015 9.60071C17.6014 9.60071 13.6028 12.7995 12.0015 19.1996C14.4008 16.0005 17.2016 14.8008 20.4008 15.6007C22.2274 16.056 23.5328 17.3805 24.9784 18.8482C27.3311 21.2358 30.0544 24 36.0015 24C42.4013 24 46.4003 20.8008 48.0015 14.3992C45.6019 17.6002 42.8014 18.7998 39.6019 18C37.7756 17.5443 36.4718 16.2202 35.0243 14.7525C32.673 12.3648 29.9505 9.60071 24.0015 9.60071ZM12.0015 24C5.60175 24 1.60275 27.1991 0.00150299 33.6007C2.40075 30.3997 5.20125 29.2001 8.40075 30C10.2274 30.4556 11.5328 31.7797 12.9784 33.2475C15.3311 35.6351 18.0544 38.3992 24.0015 38.3992C30.4013 38.3992 34.4003 35.2005 36.0015 28.8003C33.6019 31.9995 30.8014 33.1991 27.6019 32.3992C25.7756 31.944 24.4718 30.6195 23.0243 29.1517C20.673 26.7641 17.9505 24 12.0015 24Z" fill="#38B2AC"/>
</g>
<defs>
<clipPath id="clip0_5_175">
<rect width="48" height="48" fill="white"/>
</clipPath>
</defs>
</svg>
