<svg width="48" height="48" viewBox="0 0 48 48" fill="none" xmlns="http://www.w3.org/2000/svg">
<path d="M7.05516 42.7961L3.28491 0.506989H44.7149L40.9409 42.7897L23.9748 47.4934L7.05516 42.7961Z" fill="#1572B6"/>
<path d="M24.0005 43.8983L37.7101 40.0973L40.9355 3.96451H24.0005V43.8983Z" fill="#33A9DC"/>
<path d="M24.0005 19.2859H30.8637L31.3377 13.9747H24.0005V8.78812H37.0062L36.8817 10.1797L35.6067 24.4725H24.0005V19.2859Z" fill="white"/>
<path d="M24.0311 32.7559L24.0082 32.7626L18.2321 31.203L17.8627 27.0664H12.657L13.3834 35.2102L24.0075 38.1589L24.0311 38.1521V32.7559Z" fill="#EBEBEB"/>
<path d="M30.4227 24.2531L29.7979 31.1989L24.0132 32.7604V38.1566L34.6459 35.2099L34.7239 34.3335L35.6262 24.2531H30.4227Z" fill="white"/>
<path d="M24.0179 8.78812V13.9747H11.4899L11.386 12.8092L11.1498 10.1797L11.0256 8.78812H24.0179ZM24.0003 19.2866V24.4732H18.2969L18.193 23.3077L17.9564 20.6782L17.8326 19.2866H24.0003Z" fill="#EBEBEB"/>
</svg>
