<svg width="48" height="48" viewBox="0 0 48 48" fill="none" xmlns="http://www.w3.org/2000/svg">
<g clip-path="url(#clip0_2602_228)">
<path d="M14.4982 18.2512L23.5957 12.9862C23.7099 12.9289 23.8359 12.8991 23.9636 12.8991C24.0913 12.8991 24.2173 12.9289 24.3315 12.9862L33.4676 18.2512C33.7001 18.3675 33.855 18.6382 33.855 18.8704V29.4004C33.855 29.6715 33.7001 29.9036 33.4676 30.0585L24.3701 35.3235C24.2559 35.3808 24.13 35.4106 24.0022 35.4106C23.8745 35.4106 23.7485 35.3808 23.6343 35.3235L14.4982 30.0585C14.2657 29.9422 14.1108 29.6715 14.1108 29.4004V18.8704C14.1108 18.6379 14.2657 18.3671 14.4982 18.2512Z" fill="#8080F2"/>
<path d="M47.6757 23.0513L36.7969 4.0819C36.4099 3.38515 35.6745 2.8819 34.8615 2.8819H13.1044C12.3304 2.8819 11.5947 3.38515 11.169 4.0819L0.290292 23.013C0.0998957 23.3565 0 23.7428 0 24.1356C0 24.5283 0.0998957 24.9146 0.290292 25.2581L11.169 44.073C11.556 44.7698 12.2914 45.1181 13.1044 45.1181H34.9002C35.6745 45.1181 36.4099 44.7698 36.8359 44.1116L47.7147 25.2968C48.1017 24.5228 48.1017 23.7094 47.6757 23.0513ZM38.655 32.1488C38.655 32.4199 38.5002 32.6906 38.229 32.8069L24.3698 40.8206C24.2549 40.8965 24.1203 40.9369 23.9826 40.9369C23.8449 40.9369 23.7103 40.8965 23.5954 40.8206L9.69792 32.8459C9.46542 32.691 9.27192 32.4589 9.27192 32.1878V16.1216C9.27192 15.8509 9.42679 15.5798 9.69792 15.4639L23.5958 7.45015C23.7107 7.37435 23.8453 7.33394 23.983 7.33394C24.1206 7.33394 24.2553 7.37435 24.3702 7.45015L38.2684 15.4639C38.5005 15.6184 38.694 15.8509 38.694 16.1216V32.1491L38.655 32.1488Z" fill="#4B32C3"/>
</g>
<defs>
<clipPath id="clip0_2602_228">
<rect width="48" height="48" fill="white"/>
</clipPath>
</defs>
</svg>
