<svg width="48" height="48" viewBox="0 0 48 48" fill="none" xmlns="http://www.w3.org/2000/svg">
<path d="M47.5013 36.915C45.7913 37.35 44.7338 36.9338 43.785 35.5088C41.655 32.3175 39.3038 29.2725 37.035 26.1712C36.7425 25.77 36.4388 25.3762 36.0601 24.8775C33.375 28.5 30.6938 31.95 28.1775 35.5387C27.2775 36.8212 26.3325 37.38 24.6525 36.9263L34.7476 23.3775L25.35 11.1412C26.9663 10.8262 28.0838 10.9875 29.0738 12.435C31.26 15.63 33.6713 18.6712 36.075 21.8887C38.4938 18.6825 40.875 15.6375 43.125 12.4725C44.0288 11.19 45 10.7025 46.6238 11.175C45.3938 12.8062 44.19 14.4112 42.9788 16.005C41.3438 18.1537 39.7388 20.3287 38.0438 22.4325C37.44 23.1825 37.5375 23.67 38.0775 24.3787C41.2125 28.5 44.31 32.6625 47.5013 36.915ZM0.498799 23.1525C0.768799 21.7987 0.948799 20.4187 1.3238 19.0912C3.5738 11.055 12.7988 7.71375 19.1363 12.6937C22.8488 15.615 23.7713 19.7325 23.5875 24.375H2.66255C2.34755 32.7037 8.3438 37.7325 15.9863 35.1675C18.6675 34.2675 20.2463 32.1675 21.0375 29.5425C21.4388 28.2262 22.1026 28.02 23.34 28.395C22.7063 31.68 21.2701 34.425 18.2701 36.1425C13.7701 38.715 7.3463 37.8825 3.96755 34.3087C1.97255 32.2087 1.12505 29.595 0.750049 26.7712C0.693799 26.3212 0.577549 25.8787 0.487549 25.4325C0.495049 24.6725 0.498799 23.9125 0.498799 23.1525ZM2.70005 22.5937H21.6113C21.4875 16.5712 17.7375 12.2925 12.6113 12.255C6.9863 12.21 2.9438 16.3875 2.70005 22.5937Z" fill="white"/>
</svg>
