<svg width="48" height="48" viewBox="0 0 48 48" fill="none" xmlns="http://www.w3.org/2000/svg">
<g clip-path="url(#clip0_2602_239)">
<path d="M13.077 -3.04696e-05C13.0384 0.000410187 12.9999 0.00392127 12.9618 0.0104695C12.8112 0.035382 12.6722 0.107241 12.5648 0.215794C12.4574 0.324347 12.387 0.464049 12.3637 0.61497L6.71659 36.75L10.4332 29.6748L19.833 11.7783L13.725 0.38547L13.7242 0.38472C13.6619 0.267512 13.5685 0.169661 13.4544 0.10182C13.3403 0.03398 13.2097 -0.00124887 13.077 -3.04696e-05ZM23.7221 6.86022C23.4513 6.86022 23.2046 7.00872 23.0786 7.24834L20.2815 12.5745L20.2785 12.5692L7.49096 36.915L11.5222 32.8773L24.4447 19.9323L28.7583 15.6108L24.3663 7.24834C24.3046 7.13104 24.2119 7.03287 24.0983 6.96446C23.9848 6.89605 23.8547 6.86 23.7221 6.86022ZM35.7877 9.97309C35.7221 9.97086 35.6565 9.97767 35.5927 9.99335C35.4631 10.0249 35.3446 10.0916 35.2503 10.1861L29.6925 15.7522L24.9836 20.4708L6.61084 38.8751L22.2157 47.6265H22.2165C22.655 47.8715 23.149 48.0001 23.6514 48.0001C24.1538 48.0001 24.6478 47.8715 25.0863 47.6265L41.0358 38.7588L36.4815 10.5765V10.5795C36.4592 10.4478 36.4011 10.3247 36.3136 10.2239C36.226 10.1231 36.1123 10.0484 35.985 10.008C35.9211 9.98738 35.8547 9.97565 35.7877 9.97309ZM41.3895 38.9981L41.1645 39.0165L41.2578 39.0712L41.3895 38.9981Z" fill="#FFA000"/>
</g>
<defs>
<clipPath id="clip0_2602_239">
<rect width="48" height="48" fill="white"/>
</clipPath>
</defs>
</svg>
