<svg width="48" height="48" viewBox="0 0 48 48" fill="none" xmlns="http://www.w3.org/2000/svg">
<path d="M6.89614 36.3195L5.17114 35.3232L24.3899 2.03778L26.1138 3.03378L6.89614 36.3195Z" fill="#E434AA"/>
<path d="M4.77515 32.6644H43.2111V34.6557H4.77515V32.6644Z" fill="#E434AA"/>
<path d="M24.7615 44.883L5.53711 33.7838L6.53311 32.058L25.7579 43.1588L24.7615 44.883ZM41.4621 15.9537L22.2377 4.8529L23.2337 3.12903L42.4585 14.2279L41.4621 15.9537Z" fill="#E434AA"/>
<path d="M6.53763 15.9461L5.54126 14.2208L24.7675 3.12152L25.7635 4.84577L6.53763 15.9461Z" fill="#E434AA"/>
<path d="M41.1079 36.3195L21.8907 3.03378L23.6149 2.03778L42.8337 35.3232L41.1079 36.3195ZM6.30005 12.8993H8.29242V35.1008H6.30042L6.30005 12.8993Z" fill="#E434AA"/>
<path d="M39.7075 12.8993H41.6995V35.1008H39.7075V12.8993Z" fill="#E434AA"/>
<path d="M24.4232 44.0404L23.5532 42.5329L40.273 32.8785L41.143 34.386L24.4232 44.0404Z" fill="#E434AA"/>
<path d="M44.3392 35.748C43.1879 37.752 40.6199 38.436 38.6163 37.2848C36.6123 36.132 35.9283 33.564 37.0796 31.56C38.2323 29.556 40.8003 28.872 42.8043 30.0237C44.8199 31.188 45.5039 33.744 44.3392 35.748ZM10.9087 16.44C9.75594 18.444 7.18794 19.128 5.18394 17.9764C3.17994 16.8237 2.49594 14.256 3.64757 12.252C4.80032 10.248 7.36794 9.56403 9.37194 10.7153C11.3759 11.88 12.0599 14.436 10.9087 16.44ZM3.66069 35.748C2.50757 33.744 3.19194 31.188 5.19557 30.0233C7.19957 28.872 9.75557 29.556 10.9203 31.56C12.0716 33.564 11.3876 36.12 9.38357 37.2848C7.36794 38.436 4.81194 37.752 3.66069 35.748ZM37.0912 16.44C35.9399 14.436 36.6239 11.88 38.6279 10.7153C40.6319 9.56403 43.1879 10.248 44.3523 12.252C45.5036 14.256 44.8199 16.812 42.8159 17.9768C40.8119 19.128 38.2439 18.444 37.0912 16.44ZM23.9999 47.496C23.4498 47.4965 22.905 47.3885 22.3967 47.1782C21.8883 46.9679 21.4265 46.6595 21.0375 46.2705C20.6485 45.8815 20.34 45.4196 20.1297 44.9113C19.9194 44.403 19.8115 43.8581 19.8119 43.308C19.8115 42.7579 19.9194 42.2131 20.1297 41.7048C20.34 41.1964 20.6485 40.7346 21.0375 40.3456C21.4265 39.9566 21.8883 39.6481 22.3967 39.4378C22.905 39.2275 23.4498 39.1195 23.9999 39.12C24.5501 39.1195 25.0949 39.2275 25.6032 39.4378C26.1115 39.6481 26.5734 39.9566 26.9624 40.3456C27.3514 40.7346 27.6599 41.1964 27.8702 41.7048C28.0805 42.2131 28.1884 42.7579 28.1879 43.308C28.1879 45.6124 26.3159 47.496 23.9999 47.496ZM23.9999 8.88003C23.4498 8.88052 22.905 8.77253 22.3967 8.56224C21.8883 8.35195 21.4265 8.04348 21.0375 7.65449C20.6485 7.2655 20.34 6.80363 20.1297 6.29529C19.9194 5.78696 19.8115 5.24215 19.8119 4.69203C19.8115 4.14192 19.9194 3.5971 20.1297 3.08877C20.34 2.58043 20.6485 2.11856 21.0375 1.72957C21.4265 1.34058 21.8883 1.03211 22.3967 0.821818C22.905 0.611526 23.4498 0.503537 23.9999 0.50403C24.5501 0.503537 25.0949 0.611526 25.6032 0.821818C26.1115 1.03211 26.5734 1.34058 26.9624 1.72957C27.3514 2.11856 27.6599 2.58043 27.8702 3.08877C28.0805 3.5971 28.1884 4.14192 28.1879 4.69203C28.1884 5.24215 28.0805 5.78696 27.8702 6.29529C27.6599 6.80363 27.3514 7.2655 26.9624 7.65449C26.5734 8.04348 26.1115 8.35195 25.6032 8.56224C25.0949 8.77253 24.5501 8.88052 23.9999 8.88003Z" fill="#E434AA"/>
</svg>
