<svg width="48" height="48" viewBox="0 0 48 48" fill="none" xmlns="http://www.w3.org/2000/svg">
<path d="M15.4597 28.7917C15.3735 28.6418 15.3139 28.4782 15.2834 28.308C15.3172 28.4775 15.3772 28.6406 15.4597 28.7917ZM15.6764 29.0591C15.7597 29.1416 15.8534 29.2132 15.9573 29.2646C15.8535 29.2116 15.759 29.1422 15.6772 29.0591H15.6764Z" fill="#083042"/>
<path d="M24.1283 38.2376H24.0759C23.55 38.2398 23.0321 38.1087 22.5706 37.8566L12.0023 31.9504C11.3787 31.6009 10.9951 30.9529 10.9951 30.2527V18.2355C10.9951 17.7206 11.0885 17.2267 11.3063 16.7947L3.04285 12.1957C2.70047 12.9157 2.52422 13.7287 2.53435 14.583V34.4306C2.54039 35.0047 2.69824 35.5669 2.99185 36.0602C3.28547 36.5535 3.7044 36.9603 4.2061 37.2394L21.6365 46.9939C22.4052 47.4259 23.2666 47.6317 24.1179 47.6317V47.6216C24.1385 46.3766 24.1283 41.3857 24.1283 38.2376Z" fill="#083042"/>
<path d="M32.4224 18.975L32.3598 18.8828C32.308 18.8108 32.2566 18.7489 32.2049 18.6773C32.2566 18.7388 32.308 18.8112 32.3598 18.8828C32.3853 18.9103 32.4064 18.9411 32.4224 18.975ZM23.7231 14.16C23.7756 14.16 23.8173 14.1499 23.8694 14.1499C23.8173 14.16 23.7651 14.16 23.7231 14.16Z" fill="#3DDB85"/>
<path d="M11.2957 16.7839C11.5276 16.3039 11.8962 15.9031 12.3551 15.6319L22.3001 9.81824C22.7556 9.55053 23.2733 9.40682 23.8016 9.40142C24.33 9.39603 24.8505 9.52913 25.3114 9.78749L35.3606 15.4159C35.8116 15.6675 36.1989 16.0195 36.4924 16.4445L44.6212 11.64C44.1377 10.944 43.5023 10.3669 42.7631 9.95249L26.1622 0.661486C25.4023 0.23691 24.5446 0.0182948 23.6742 0.0273063C22.8038 0.0363178 21.9508 0.272643 21.1998 0.712861L4.78685 10.302C4.0293 10.7446 3.42179 11.4041 3.04272 12.1954L11.2957 16.7839Z" fill="#3DDC84"/>
<path d="M15.479 19.0995C15.5 19.0582 15.5206 19.017 15.542 18.987C15.5206 19.0278 15.5004 19.0582 15.479 19.0995Z" fill="#3DDB85"/>
<path d="M44.6107 11.64L36.4818 16.4445C36.7931 16.8971 36.9802 17.4319 36.9899 17.9779V29.4191C36.9962 29.9432 36.8631 30.4594 36.6041 30.915C36.3451 31.3706 35.9697 31.7492 35.5162 32.0119L25.5704 37.8263C25.1315 38.0824 24.6351 38.2239 24.1271 38.2376C24.1379 41.376 24.1379 46.3665 24.1169 47.6115V47.6216C24.9887 47.612 25.8433 47.378 26.5983 46.9421L43.0117 37.3425C44.5379 36.4474 45.4724 34.8214 45.4514 33.0619V14.1814C45.4409 13.2656 45.1297 12.3911 44.6107 11.64Z" fill="#4285F4"/>
<path d="M32.6112 28.1951C32.6007 28.2161 32.6007 28.2368 32.5902 28.2581C32.602 28.239 32.6092 28.2175 32.6112 28.1951ZM32.507 19.11C32.4856 19.0583 32.4545 19.017 32.4234 18.9656C32.4545 19.017 32.486 19.0688 32.507 19.11ZM25.0527 33.216L31.7176 29.3168L25.0527 33.2168V33.216ZM32.5276 28.4318C32.5066 28.4835 32.4755 28.5349 32.4541 28.5866C32.4755 28.5248 32.4961 28.473 32.5276 28.4318Z" fill="#4285F4"/>
<path d="M15.4493 19.1918C15.3648 19.3917 15.3123 19.6036 15.2937 19.8199C15.2832 19.9016 15.2832 19.9841 15.2832 20.0771V28.1333C15.2832 28.1948 15.2832 28.2465 15.2937 28.3084C15.3147 28.4828 15.377 28.6478 15.47 28.7921C15.5326 28.8949 15.605 28.9766 15.6781 29.0591C15.7613 29.1416 15.8543 29.2133 15.9578 29.2654L23.0386 33.2265C23.3466 33.3967 23.6931 33.4852 24.0451 33.4834H24.1182C24.4483 33.4722 24.77 33.3767 25.0527 33.2059L31.7176 29.3063C31.7592 29.2856 31.7903 29.2545 31.832 29.2343C31.9047 29.1829 31.9775 29.1311 32.0397 29.0693C32.1372 28.9808 32.2276 28.8848 32.3093 28.7813C32.3611 28.7093 32.4132 28.6376 32.4548 28.5653C32.4856 28.5143 32.507 28.4625 32.5272 28.4108C32.5482 28.3601 32.5797 28.2979 32.6003 28.2364C32.6105 28.2154 32.6105 28.1948 32.621 28.1745C32.6838 27.9747 32.7153 27.7663 32.7143 27.5569V19.8915C32.7143 19.7479 32.6933 19.614 32.6626 19.4805C32.642 19.3875 32.6101 19.305 32.5793 19.2225L32.5171 19.0995C32.4965 19.0478 32.4646 19.0069 32.4338 18.9551L32.3716 18.8629C32.3198 18.7905 32.2677 18.729 32.216 18.657C32.0468 18.4599 31.8426 18.2959 31.6137 18.1733L24.8765 14.3978C24.7602 14.3323 24.6385 14.2771 24.5127 14.2328C24.3439 14.1813 24.1695 14.1503 23.9933 14.1405H23.8583C23.807 14.1405 23.7653 14.1405 23.7136 14.1503C23.5943 14.1609 23.4761 14.1816 23.3603 14.2121C23.3397 14.2223 23.3191 14.2223 23.2981 14.2331C23.1425 14.2744 22.997 14.346 22.8515 14.4281L16.1866 18.3281C15.9928 18.4414 15.8233 18.5918 15.6878 18.7706C15.6365 18.8426 15.5843 18.9146 15.5427 18.9866C15.5221 19.0279 15.5015 19.0586 15.4805 19.0999L15.4493 19.1918Z" fill="#D6F0FF"/>
<path d="M24.1169 33.483H24.0441C23.692 33.4847 23.3453 33.3964 23.0369 33.2265L15.9569 29.265C15.8552 29.2083 15.761 29.1391 15.6764 29.0591C15.5952 28.9798 15.5253 28.8897 15.4686 28.7914C15.3824 28.6415 15.3228 28.4778 15.2924 28.3076C15.2815 28.2465 15.2815 28.1947 15.2815 28.1332V20.0764C15.2815 19.9942 15.2815 19.902 15.2924 19.8191C15.3123 19.6035 15.3644 19.3916 15.448 19.1914L13.5374 18.0292L11.2949 16.7842C11.0871 17.2162 10.9836 17.7097 10.9836 18.2246V30.2422C10.9898 30.5883 11.0859 30.9268 11.2624 31.2244C11.439 31.5221 11.6899 31.7688 11.9905 31.9402L22.5494 37.8562C23.0092 38.1128 23.5282 38.2441 24.0546 38.2372H24.1071C24.1071 36.7039 24.0963 35.6134 24.0963 35.6134L24.1169 33.483Z" fill="#083042"/>
<path d="M24.1169 33.483H24.0441C23.692 33.4847 23.3453 33.3964 23.0369 33.2265L15.9569 29.265C15.8552 29.2083 15.761 29.1391 15.6764 29.0591C15.5952 28.9798 15.5253 28.8897 15.4686 28.7914C15.3824 28.6415 15.3228 28.4778 15.2924 28.3076C15.2815 28.2465 15.2815 28.1947 15.2815 28.1332V20.0764C15.2815 19.9942 15.2815 19.902 15.2924 19.8191C15.3123 19.6035 15.3644 19.3916 15.448 19.1914L13.5374 18.0292L11.2949 16.7842C11.0871 17.2162 10.9836 17.7097 10.9836 18.2246V30.2422C10.9898 30.5883 11.0859 30.9268 11.2624 31.2244C11.439 31.5221 11.6899 31.7688 11.9905 31.9402L22.5494 37.8562C23.0092 38.1128 23.5282 38.2441 24.0546 38.2372H24.1071C24.1071 36.7039 24.0963 35.6134 24.0963 35.6134L24.1169 33.483Z" fill="#041619"/>
<path d="M35.3497 15.4159L25.3001 9.78712C24.8392 9.52893 24.3187 9.39595 23.7905 9.40141C23.2622 9.40687 22.7446 9.55058 22.2892 9.81824L12.3442 15.6322C11.8827 15.9005 11.5132 16.3023 11.2844 16.7846L13.5382 18.0296L15.448 19.1917L15.4788 19.0995C15.4998 19.0579 15.5204 19.017 15.541 18.9862C15.5827 18.9142 15.6348 18.8422 15.6865 18.7702C15.8215 18.5951 15.9877 18.4515 16.1853 18.3277L22.8498 14.4277C22.9923 14.3479 23.1412 14.2826 23.2964 14.2327C23.3174 14.2226 23.338 14.2226 23.3587 14.2117C23.4742 14.1802 23.5923 14.16 23.7115 14.1502C23.7633 14.1502 23.8049 14.1397 23.857 14.1397H23.992C24.1679 14.151 24.3419 14.1814 24.511 14.232C24.6385 14.2725 24.7604 14.3276 24.8744 14.3974L31.6117 18.1736C31.8391 18.2987 32.0431 18.4622 32.2147 18.657C32.266 18.7185 32.3185 18.7909 32.3699 18.8625L32.4325 18.9547L34.1557 17.8132L36.4915 16.4242C36.1904 16.0226 35.8064 15.6626 35.3497 15.4159Z" fill="#3DDB85"/>
<path d="M35.3497 15.4159L25.3001 9.78712C24.8392 9.52893 24.3187 9.39595 23.7905 9.40141C23.2622 9.40687 22.7446 9.55058 22.2892 9.81824L12.3442 15.6322C11.8827 15.9005 11.5132 16.3023 11.2844 16.7846L13.5382 18.0296L15.448 19.1917L15.4788 19.0995C15.4998 19.0579 15.5204 19.017 15.541 18.9862C15.5827 18.9142 15.6348 18.8422 15.6865 18.7702C15.8215 18.5951 15.9877 18.4515 16.1853 18.3277L22.8498 14.4277C22.9923 14.3479 23.1412 14.2826 23.2964 14.2327C23.3174 14.2226 23.338 14.2226 23.3587 14.2117C23.4742 14.1802 23.5923 14.16 23.7115 14.1502C23.7633 14.1502 23.8049 14.1397 23.857 14.1397H23.992C24.1679 14.151 24.3419 14.1814 24.511 14.232C24.6385 14.2725 24.7604 14.3276 24.8744 14.3974L31.6117 18.1736C31.8391 18.2987 32.0431 18.4622 32.2147 18.657C32.266 18.7185 32.3185 18.7909 32.3699 18.8625L32.4325 18.9547L34.1557 17.8132L36.4915 16.4242C36.1904 16.0226 35.8064 15.6626 35.3497 15.4159Z" fill="#37BF6E"/>
<path d="M32.4224 18.9757C32.4536 19.0267 32.4746 19.068 32.5053 19.1197L32.5679 19.2431C32.6553 19.4553 32.7011 19.6823 32.7029 19.9117V27.5775C32.7037 27.7868 32.6721 27.995 32.6092 28.1947C32.5991 28.215 32.5991 28.236 32.5886 28.2562C32.5688 28.3164 32.5446 28.3751 32.5162 28.4317C32.4948 28.4823 32.4637 28.5341 32.4431 28.5855C32.4018 28.6578 32.3497 28.7295 32.2976 28.8018C32.2159 28.9051 32.1257 29.0013 32.0279 29.0895C31.9657 29.1513 31.8929 29.2027 31.8202 29.2545C31.7786 29.2747 31.7478 29.3058 31.7062 29.3265L25.0409 33.2257C24.7543 33.3875 24.4349 33.4826 24.1064 33.504V35.6336C24.1064 35.6336 24.1064 36.7245 24.1169 38.2575C24.6257 38.2485 25.1233 38.1067 25.5603 37.8461L35.5053 32.0321C36.4297 31.4872 36.9903 30.4991 36.9798 29.4397V17.9981C36.9697 17.4423 36.7829 16.9173 36.4717 16.4647L34.1351 17.8541L32.4224 18.9757Z" fill="#4285F4"/>
<path d="M32.4224 18.9757C32.4536 19.0267 32.4746 19.068 32.5053 19.1197L32.5679 19.2431C32.6553 19.4553 32.7011 19.6823 32.7029 19.9117V27.5775C32.7037 27.7868 32.6721 27.995 32.6092 28.1947C32.5991 28.215 32.5991 28.236 32.5886 28.2562C32.5688 28.3164 32.5446 28.3751 32.5162 28.4317C32.4948 28.4823 32.4637 28.5341 32.4431 28.5855C32.4018 28.6578 32.3497 28.7295 32.2976 28.8018C32.2159 28.9051 32.1257 29.0013 32.0279 29.0895C31.9657 29.1513 31.8929 29.2027 31.8202 29.2545C31.7786 29.2747 31.7478 29.3058 31.7062 29.3265L25.0409 33.2257C24.7543 33.3875 24.4349 33.4826 24.1064 33.504V35.6336C24.1064 35.6336 24.1064 36.7245 24.1169 38.2575C24.6257 38.2485 25.1233 38.1067 25.5603 37.8461L35.5053 32.0321C36.4297 31.4872 36.9903 30.4991 36.9798 29.4397V17.9981C36.9697 17.4423 36.7829 16.9173 36.4717 16.4647L34.1351 17.8541L32.4224 18.9757Z" fill="#3870B2"/>
<path d="M23.308 14.2432C23.152 14.2845 23.0065 14.3565 22.8618 14.4382L16.1965 18.3382L22.861 14.439C22.9997 14.3529 23.15 14.2873 23.3073 14.244L23.308 14.2432Z" fill="#D6F0FF"/>
<path opacity="0.1" d="M23.308 14.2432C23.152 14.2845 23.0065 14.3565 22.8618 14.4382L16.1965 18.3382L22.861 14.439C22.9997 14.3529 23.15 14.2873 23.3073 14.244L23.308 14.2432Z" fill="black"/>
<path d="M32.5679 19.2334C32.6 19.3174 32.6275 19.403 32.6504 19.4899C32.6298 19.4078 32.5979 19.3256 32.5671 19.2334H32.5679Z" fill="#D6F0FF"/>
<path opacity="0.1" d="M32.5679 19.2334C32.6 19.3174 32.6275 19.403 32.6504 19.4899C32.6298 19.4078 32.5979 19.3256 32.5671 19.2334H32.5679Z" fill="black"/>
</svg>
