<svg width="48" height="48" viewBox="0 0 48 48" fill="none" xmlns="http://www.w3.org/2000/svg">
<path d="M23.7716 4.59295C22.1884 4.60045 20.6771 4.73507 19.3466 4.97057C15.4279 5.66282 14.7169 7.11182 14.7169 9.78445V13.3136H23.9768V14.4899H11.2414C8.55039 14.4899 6.19389 16.1073 5.45664 19.1853C4.60614 22.7122 4.56864 24.9135 5.45664 28.5963C6.11476 31.3379 7.68676 33.2909 10.3781 33.2909H13.5623V29.0602C13.5623 26.0036 16.2064 23.3077 19.347 23.3077H28.5964C31.1711 23.3077 33.2261 21.1875 33.2261 18.6022V9.78482C33.2261 7.27495 31.1089 5.38982 28.5964 4.97095C27.0049 4.7062 25.3545 4.58582 23.7716 4.59295ZM18.7639 7.43132C19.7201 7.43132 20.5016 8.2252 20.5016 9.2017C20.5016 10.1741 19.7205 10.9604 18.7639 10.9604C17.8039 10.9604 17.0265 10.1741 17.0265 9.2017C17.0261 8.2252 17.8039 7.43132 18.7639 7.43132Z" fill="url(#paint0_linear_5_181)"/>
<path d="M34.3808 14.49V18.6022C34.3808 21.7897 31.6778 24.4729 28.596 24.4729H19.3466C16.8131 24.4729 14.7169 26.6415 14.7169 29.1788V37.9969C14.7169 40.506 16.8986 41.9824 19.3466 42.702C22.2776 43.5634 25.0886 43.7194 28.596 42.702C30.927 42.0266 33.2258 40.6684 33.2258 37.9969V34.4674H23.9768V33.2906H37.8563C40.5473 33.2906 41.5508 31.4137 42.4868 28.596C43.4535 25.6954 43.4119 22.9057 42.4868 19.185C41.8215 16.5056 40.5514 14.4896 37.8563 14.4896L34.3808 14.49ZM29.1784 36.8201C30.1388 36.8201 30.9161 37.6065 30.9161 38.5796C30.9161 39.5554 30.1384 40.3492 29.1784 40.3492C28.2221 40.3492 27.441 39.5554 27.441 38.5796C27.441 37.6065 28.2221 36.8201 29.1784 36.8201Z" fill="url(#paint1_linear_5_181)"/>
<path opacity="0.444" d="M36.4909 44.8489C36.4909 46.1775 30.9349 47.2549 24.0817 47.2549C17.2282 47.2549 11.6722 46.1775 11.6722 44.8489C11.6722 43.5199 17.2279 42.4425 24.0817 42.4425C30.9349 42.4425 36.4909 43.5195 36.4909 44.8489Z" fill="url(#paint2_radial_5_181)"/>
<defs>
<linearGradient id="paint0_linear_5_181" x1="3.87634" y1="5.69644" x2="25.234" y2="23.9101" gradientUnits="userSpaceOnUse">
<stop stop-color="#5A9FD4"/>
<stop offset="1" stop-color="#306998"/>
</linearGradient>
<linearGradient id="paint1_linear_5_181" x1="33.2696" y1="35.2321" x2="25.6104" y2="24.4913" gradientUnits="userSpaceOnUse">
<stop stop-color="#FFD43B"/>
<stop offset="1" stop-color="#FFE873"/>
</linearGradient>
<radialGradient id="paint2_radial_5_181" cx="0" cy="0" r="1" gradientUnits="userSpaceOnUse" gradientTransform="translate(24.0316 44.78) rotate(-90) scale(2.40687 10.5802)">
<stop stop-color="#B8B8B8" stop-opacity="0.498"/>
<stop offset="1" stop-color="#7F7F7F" stop-opacity="0"/>
</radialGradient>
</defs>
</svg>
