<svg width="48" height="48" viewBox="0 0 48 48" fill="none" xmlns="http://www.w3.org/2000/svg">
<path d="M23.7717 4.59301C22.1884 4.60051 20.6772 4.73514 19.3467 4.97064C15.428 5.66289 14.717 7.11189 14.717 9.78451V13.3136H23.9768V14.49H11.2415C8.55045 14.49 6.19395 16.1074 5.4567 19.1854C4.6062 22.7123 4.5687 24.9135 5.4567 28.5964C6.11483 31.338 7.68683 33.291 10.3782 33.291H13.5623V29.0603C13.5623 26.0036 16.2065 23.3078 19.3471 23.3078H28.5965C31.1712 23.3078 33.2262 21.1875 33.2262 18.6023V9.78489C33.2262 7.27501 31.109 5.38989 28.5965 4.97101C27.005 4.70626 25.3546 4.58589 23.7717 4.59301ZM18.764 7.43139C19.7202 7.43139 20.5017 8.22526 20.5017 9.20176C20.5017 10.1741 19.7206 10.9605 18.764 10.9605C17.804 10.9605 17.0266 10.1741 17.0266 9.20176C17.0262 8.22526 17.804 7.43139 18.764 7.43139Z" fill="url(#paint0_linear_301_100)"/>
<path d="M34.3807 14.49V18.6022C34.3807 21.7897 31.6777 24.4729 28.5959 24.4729H19.3465C16.813 24.4729 14.7168 26.6415 14.7168 29.1788V37.9969C14.7168 40.506 16.8985 41.9824 19.3465 42.702C22.2775 43.5634 25.0885 43.7194 28.5959 42.702C30.9269 42.0266 33.2257 40.6684 33.2257 37.9969V34.4674H23.9767V33.2906H37.8562C40.5472 33.2906 41.5507 31.4137 42.4867 28.596C43.4534 25.6954 43.4118 22.9057 42.4867 19.185C41.8214 16.5056 40.5513 14.4896 37.8562 14.4896L34.3807 14.49ZM29.1783 36.8201C30.1387 36.8201 30.916 37.6065 30.916 38.5796C30.916 39.5554 30.1383 40.3492 29.1783 40.3492C28.222 40.3492 27.4409 39.5554 27.4409 38.5796C27.4409 37.6065 28.222 36.8201 29.1783 36.8201Z" fill="url(#paint1_linear_301_100)"/>
<path opacity="0.444" d="M36.491 44.8489C36.491 46.1775 30.935 47.2549 24.0819 47.2549C17.2284 47.2549 11.6724 46.1775 11.6724 44.8489C11.6724 43.5199 17.228 42.4425 24.0819 42.4425C30.935 42.4425 36.491 43.5195 36.491 44.8489Z" fill="url(#paint2_radial_301_100)"/>
<defs>
<linearGradient id="paint0_linear_301_100" x1="3.8764" y1="5.6965" x2="25.2341" y2="23.9102" gradientUnits="userSpaceOnUse">
<stop stop-color="#5A9FD4"/>
<stop offset="1" stop-color="#306998"/>
</linearGradient>
<linearGradient id="paint1_linear_301_100" x1="33.2695" y1="35.2321" x2="25.6103" y2="24.4913" gradientUnits="userSpaceOnUse">
<stop stop-color="#FFD43B"/>
<stop offset="1" stop-color="#FFE873"/>
</linearGradient>
<radialGradient id="paint2_radial_301_100" cx="0" cy="0" r="1" gradientUnits="userSpaceOnUse" gradientTransform="translate(24.0317 44.78) rotate(-90) scale(2.40687 10.5802)">
<stop stop-color="#B8B8B8" stop-opacity="0.498"/>
<stop offset="1" stop-color="#7F7F7F" stop-opacity="0"/>
</radialGradient>
</defs>
</svg>
