<svg width="48" height="48" viewBox="0 0 48 48" fill="none" xmlns="http://www.w3.org/2000/svg">
<path d="M40.2548 0.754514L37.6621 0.916139L37.8642 6.30751C37.8747 6.60564 37.5308 6.77964 37.2964 6.59476L35.5602 5.22601L33.5033 6.78676C33.4503 6.82698 33.387 6.85129 33.3208 6.85685C33.2545 6.86241 33.188 6.84898 33.1291 6.81815C33.0702 6.78731 33.0212 6.74033 32.988 6.68271C32.9548 6.62509 32.9387 6.55921 32.9416 6.49276L33.1729 1.19664L7.45243 2.80501C6.8406 2.84314 6.26791 3.11893 5.85663 3.57351C5.44535 4.02808 5.22807 4.62543 5.25118 5.23801L6.69868 43.8023C6.72078 44.3915 6.96366 44.9508 7.3791 45.3693C7.79454 45.7877 8.35214 46.0346 8.94118 46.0609L40.2957 47.4686C40.6126 47.4826 40.9291 47.4324 41.2262 47.3209C41.5232 47.2094 41.7946 47.039 42.0241 46.8199C42.2536 46.6008 42.4363 46.3374 42.561 46.0457C42.6858 45.754 42.7501 45.4399 42.7501 45.1226V3.09901C42.7502 2.77814 42.6846 2.46064 42.5572 2.16613C42.4298 1.87163 42.2434 1.60637 42.0094 1.38676C41.7757 1.16703 41.4994 0.997559 41.1976 0.888813C40.8958 0.780067 40.575 0.734359 40.2548 0.754514ZM24.7073 8.69964C30.8228 8.69964 34.1626 11.9708 34.1626 18.1943C33.3361 18.8366 27.1801 19.2743 27.1801 18.3604C27.3098 14.8729 25.7487 14.7203 24.8813 14.7203C24.0571 14.7203 22.6692 14.9685 22.6692 16.8368C22.6692 21.4448 34.5529 21.1961 34.5529 30.4958C34.5529 35.727 30.3023 38.6164 24.8813 38.6164C19.2863 38.6164 14.3974 36.3529 14.9494 28.5053C15.1662 27.5839 22.2788 27.8029 22.2788 28.5053C22.1926 31.7434 22.9294 32.6959 24.7939 32.6959C26.2253 32.6959 26.8763 31.9073 26.8763 30.5786C26.8763 25.8458 15.1662 25.68 15.1662 17.0033C15.1662 12.0214 18.5926 8.69964 24.7073 8.69964Z" fill="#FF4785"/>
</svg>
