<svg width="48" height="48" viewBox="0 0 48 48" fill="none" xmlns="http://www.w3.org/2000/svg">
<g clip-path="url(#clip0_5_187)">
<path d="M0.75 23.9663V47.4038H47.625V0.528809H0.75V23.9663ZM38.5238 22.0913C39.6465 22.3518 40.6669 22.939 41.4563 23.7788C41.8908 24.2312 42.2686 24.7349 42.5813 25.2788C42.5812 25.3388 40.5563 26.7076 39.3225 27.4726C39.2775 27.5026 39.0975 27.3076 38.8988 27.0113C38.6735 26.6227 38.3535 26.2975 37.9686 26.066C37.5837 25.8345 37.1464 25.7043 36.6975 25.6876C35.2762 25.5901 34.3613 26.3363 34.3688 27.5626C34.357 27.8679 34.4269 28.1708 34.5713 28.4401C34.8825 29.0888 35.4637 29.4751 37.2863 30.2626C40.6425 31.7063 42.0787 32.6588 42.9712 34.0126C43.9688 35.5126 44.19 37.9351 43.515 39.7276C42.765 41.6776 40.9275 43.0013 38.3288 43.4401C37.1418 43.576 35.9426 43.5634 34.7588 43.4026C32.9521 43.1095 31.2854 42.2492 30 40.9463C29.5688 40.4701 28.7288 39.2288 28.7812 39.1388C28.9181 39.0372 29.0623 38.9457 29.2125 38.8651L30.9375 37.8751L32.2837 37.0951L32.565 37.5113C33.0396 38.1903 33.6437 38.7688 34.3425 39.2138C35.8425 40.0013 37.89 39.8926 38.9025 38.9813C39.2424 38.6474 39.4545 38.2048 39.5018 37.7307C39.5491 37.2565 39.4286 36.7808 39.1613 36.3863C38.7863 35.8651 38.0362 35.4263 35.94 34.5113C33.5212 33.4688 32.4788 32.8238 31.5262 31.7963C30.9316 31.1183 30.4926 30.3183 30.24 29.4526C30.0516 28.4635 30.0237 27.4505 30.1575 26.4526C30.6562 24.1163 32.4075 22.4851 34.965 22.0013C36.1494 21.8548 37.3491 21.8876 38.5238 22.0988V22.0913ZM27.5212 24.0563V25.9763H21.435V43.3126H17.1188V25.9726H11.0175V24.0976C11.0011 23.4521 11.0186 22.8062 11.07 22.1626C11.0925 22.1326 14.82 22.1176 19.32 22.1251H27.4988L27.5212 24.0563Z" fill="#007ACC"/>
</g>
<defs>
<clipPath id="clip0_5_187">
<rect width="48" height="48" fill="white"/>
</clipPath>
</defs>
</svg>
