<svg width="48" height="48" viewBox="0 0 48 48" fill="none" xmlns="http://www.w3.org/2000/svg">
<path d="M47.5012 36.915C45.7912 37.35 44.7337 36.9338 43.785 35.5088C41.655 32.3175 39.3037 29.2725 37.035 26.1712C36.7425 25.77 36.4388 25.3762 36.06 24.8775C33.375 28.5 30.6937 31.95 28.1775 35.5387C27.2775 36.8212 26.3325 37.38 24.6525 36.9263L34.7475 23.3775L25.35 11.1412C26.9662 10.8262 28.0837 10.9875 29.0737 12.435C31.26 15.63 33.6712 18.6712 36.075 21.8887C38.4937 18.6825 40.875 15.6375 43.125 12.4725C44.0287 11.19 45 10.7025 46.6237 11.175C45.3937 12.8062 44.19 14.4112 42.9787 16.005C41.3438 18.1537 39.7387 20.3287 38.0437 22.4325C37.44 23.1825 37.5375 23.67 38.0775 24.3787C41.2125 28.5 44.31 32.6625 47.5012 36.915ZM0.498749 23.1525C0.768749 21.7987 0.948749 20.4187 1.32375 19.0912C3.57375 11.055 12.7987 7.71375 19.1362 12.6937C22.8487 15.615 23.7712 19.7325 23.5875 24.375H2.6625C2.3475 32.7037 8.34375 37.7325 15.9862 35.1675C18.6675 34.2675 20.2462 32.1675 21.0375 29.5425C21.4387 28.2262 22.1025 28.02 23.34 28.395C22.7062 31.68 21.27 34.425 18.27 36.1425C13.77 38.715 7.34625 37.8825 3.9675 34.3087C1.9725 32.2087 1.125 29.595 0.749999 26.7712C0.693749 26.3212 0.577499 25.8787 0.487499 25.4325C0.494999 24.6725 0.498749 23.9125 0.498749 23.1525ZM2.7 22.5937H21.6112C21.4875 16.5712 17.7375 12.2925 12.6112 12.255C6.98625 12.21 2.94375 16.3875 2.7 22.5937Z" fill="white"/>
</svg>
