<svg width="32" height="32" viewBox="0 0 32 32" fill="none" xmlns="http://www.w3.org/2000/svg">
<path d="M31.5311 29.2673C31.6798 29.4159 31.7977 29.5924 31.8781 29.7866C31.9586 29.9808 32 30.189 32 30.3992C32 30.6094 31.9586 30.8176 31.8781 31.0118C31.7977 31.206 31.6798 31.3825 31.5311 31.5311C31.3825 31.6798 31.206 31.7977 31.0118 31.8781C30.8176 31.9586 30.6094 32 30.3992 32C30.189 32 29.9808 31.9586 29.7866 31.8781C29.5924 31.7977 29.4159 31.6798 29.2673 31.5311L16 18.2619L2.73274 31.5311C2.43253 31.8313 2.02536 32 1.6008 32C1.17624 32 0.769072 31.8313 0.468863 31.5311C0.168655 31.2309 8.36906e-09 30.8238 0 30.3992C-8.36906e-09 29.9746 0.168655 29.5675 0.468863 29.2673L13.7381 16L0.468863 2.73274C0.168655 2.43253 0 2.02536 0 1.6008C0 1.17624 0.168655 0.769072 0.468863 0.468863C0.769072 0.168655 1.17624 0 1.6008 0C2.02536 0 2.43253 0.168655 2.73274 0.468863L16 13.7381L29.2673 0.468863C29.5675 0.168655 29.9746 -8.36906e-09 30.3992 0C30.8238 8.36906e-09 31.2309 0.168655 31.5311 0.468863C31.8313 0.769072 32 1.17624 32 1.6008C32 2.02536 31.8313 2.43253 31.5311 2.73274L18.2619 16L31.5311 29.2673Z" fill="white"/>
</svg>
