<svg width="32" height="33" viewBox="0 0 32 33" fill="none" xmlns="http://www.w3.org/2000/svg">
<path d="M10.5 30.0039C10.8944 30.0056 11.2853 29.9291 11.65 29.7789C12.0147 29.6287 12.3461 29.4078 12.625 29.1289C12.9039 28.85 13.1248 28.5186 13.275 28.1539C13.4252 27.7892 13.5017 27.3983 13.5 27.0039V21.0039" stroke="white" stroke-width="2" stroke-linecap="round" stroke-linejoin="round"/>
<path d="M21.5 30.0039C21.1056 30.0056 20.7147 29.9291 20.35 29.7789C19.9853 29.6287 19.6539 29.4078 19.375 29.1289C19.0961 28.85 18.8752 28.5186 18.725 28.1539C18.5748 27.7892 18.4984 27.3983 18.5 27.0039V21.0039" stroke="white" stroke-width="2" stroke-linecap="round" stroke-linejoin="round"/>
<path d="M19 21.0039H21C21.3944 21.0023 21.7853 21.0787 22.15 21.2289C22.5147 21.3791 22.8461 21.6 23.125 21.8789C23.4039 22.1578 23.6248 22.4892 23.775 22.8539C23.9252 23.2187 24.0017 23.6095 24 24.0039V25.0039C23.9983 25.3984 24.0748 25.7892 24.225 26.1539C24.3752 26.5187 24.5961 26.85 24.875 27.1289C25.1539 27.4078 25.4853 27.6288 25.85 27.7789C26.2147 27.9291 26.6056 28.0056 27 28.0039" stroke="white" stroke-width="2" stroke-linecap="round" stroke-linejoin="round"/>
<path d="M13 21.0039H11C10.6056 21.0023 10.2147 21.0787 9.85 21.2289C9.48527 21.3791 9.1539 21.6 8.87499 21.8789C8.59609 22.1578 8.37517 22.4892 8.22499 22.8539C8.07481 23.2187 7.99835 23.6095 8 24.0039V25.0039C8.00165 25.3984 7.92519 25.7892 7.77501 26.1539C7.62483 26.5187 7.40391 26.85 7.12501 27.1289C6.8461 27.4078 6.51473 27.6288 6.15 27.7789C5.78528 27.9291 5.39443 28.0056 5 28.0039" stroke="white" stroke-width="2" stroke-linecap="round" stroke-linejoin="round"/>
<path d="M13.975 8.00391C13.3875 7.08454 12.5781 6.32785 11.6212 5.80356C10.6644 5.27928 9.59104 5.00428 8.5 5.00391C8.01488 5.84363 7.72379 6.78126 7.64809 7.74808C7.57239 8.7149 7.71399 9.68641 8.0625 10.5914C7.37901 11.599 7.00929 12.7864 7 14.0039V15.0039C7 16.5952 7.63214 18.1213 8.75736 19.2465C9.88258 20.3718 11.4087 21.0039 13 21.0039H19C20.5913 21.0039 22.1174 20.3718 23.2426 19.2465C24.3679 18.1213 25 16.5952 25 15.0039V14.0039C24.9907 12.7864 24.621 11.599 23.9375 10.5914C24.286 9.68641 24.4276 8.7149 24.3519 7.74808C24.2762 6.78126 23.9851 5.84363 23.5 5.00391C22.409 5.00428 21.3356 5.27928 20.3787 5.80356C19.4219 6.32785 18.6125 7.08454 18.025 8.00391H13.975Z" stroke="white" stroke-width="2" stroke-linecap="round" stroke-linejoin="round"/>
</svg>
