<svg width="32" height="32" viewBox="0 0 32 32" fill="none" xmlns="http://www.w3.org/2000/svg">
<g clip-path="url(#clip0_67_417)">
<path d="M32 16C32 16.4715 31.8595 16.9237 31.6095 17.2571C31.3594 17.5905 31.0203 17.7778 30.6667 17.7778H1.33333C0.979711 17.7778 0.640573 17.5905 0.390525 17.2571C0.140476 16.9237 0 16.4715 0 16C0 15.5285 0.140476 15.0763 0.390525 14.7429C0.640573 14.4095 0.979711 14.2222 1.33333 14.2222H30.6667C31.0203 14.2222 31.3594 14.4095 31.6095 14.7429C31.8595 15.0763 32 15.5285 32 16ZM1.33333 3.55556H30.6667C31.0203 3.55556 31.3594 3.36825 31.6095 3.03486C31.8595 2.70146 32 2.24927 32 1.77778C32 1.30628 31.8595 0.854097 31.6095 0.520699C31.3594 0.187301 31.0203 0 30.6667 0H1.33333C0.979711 0 0.640573 0.187301 0.390525 0.520699C0.140476 0.854097 0 1.30628 0 1.77778C0 2.24927 0.140476 2.70146 0.390525 3.03486C0.640573 3.36825 0.979711 3.55556 1.33333 3.55556ZM30.6667 28.4444H1.33333C0.979711 28.4444 0.640573 28.6317 0.390525 28.9651C0.140476 29.2985 0 29.7507 0 30.2222C0 30.6937 0.140476 31.1459 0.390525 31.4793C0.640573 31.8127 0.979711 32 1.33333 32H30.6667C31.0203 32 31.3594 31.8127 31.6095 31.4793C31.8595 31.1459 32 30.6937 32 30.2222C32 29.7507 31.8595 29.2985 31.6095 28.9651C31.3594 28.6317 31.0203 28.4444 30.6667 28.4444Z" fill="white"/>
</g>
<defs>
<clipPath id="clip0_67_417">
<rect width="32" height="32" fill="white"/>
</clipPath>
</defs>
</svg>
